<svg width="24" height="25" viewBox="0 0 24 25" fill="none" xmlns="http://www.w3.org/2000/svg">
<g id="Icon">
<path id="Vector" d="M17.7102 11.7889L12.7102 6.78892C12.6151 6.69788 12.5029 6.62651 12.3802 6.57892C12.1367 6.4789 11.8636 6.4789 11.6202 6.57892C11.4974 6.62651 11.3853 6.69788 11.2902 6.78892L6.29019 11.7889C6.19695 11.8822 6.12299 11.9928 6.07253 12.1147C6.02207 12.2365 5.99609 12.3671 5.99609 12.4989C5.99609 12.7652 6.10188 13.0206 6.29019 13.2089C6.47849 13.3972 6.73388 13.503 7.00019 13.503C7.26649 13.503 7.52188 13.3972 7.71019 13.2089L11.0002 9.90892V17.4989C11.0002 17.7641 11.1055 18.0185 11.2931 18.206C11.4806 18.3936 11.735 18.4989 12.0002 18.4989C12.2654 18.4989 12.5198 18.3936 12.7073 18.206C12.8948 18.0185 13.0002 17.7641 13.0002 17.4989V9.90892L16.2902 13.2089C16.3831 13.3026 16.4937 13.377 16.6156 13.4278C16.7375 13.4786 16.8682 13.5047 17.0002 13.5047C17.1322 13.5047 17.2629 13.4786 17.3848 13.4278C17.5066 13.377 17.6172 13.3026 17.7102 13.2089C17.8039 13.116 17.8783 13.0054 17.9291 12.8835C17.9798 12.7616 18.006 12.6309 18.006 12.4989C18.006 12.3669 17.9798 12.2362 17.9291 12.1143C17.8783 11.9925 17.8039 11.8819 17.7102 11.7889Z" fill="#1C35EA"/>
</g>
</svg>
