<svg width="16" height="16" viewBox="0 0 16 16" fill="none" xmlns="http://www.w3.org/2000/svg">
<path d="M11.3339 7.33411H6.27392L8.47392 5.14077C8.59945 5.01524 8.66998 4.84498 8.66998 4.66744C8.66998 4.48991 8.59945 4.31964 8.47392 4.19411C8.34838 4.06857 8.17812 3.99805 8.00058 3.99805C7.82305 3.99805 7.65278 4.06857 7.52725 4.19411L4.19392 7.52744C4.13322 7.59084 4.08564 7.66561 4.05392 7.74744C3.98724 7.90975 3.98724 8.0918 4.05392 8.25411C4.08564 8.33594 4.13322 8.41071 4.19392 8.47411L7.52725 11.8074C7.58922 11.8699 7.66296 11.9195 7.7442 11.9534C7.82544 11.9872 7.91257 12.0046 8.00058 12.0046C8.08859 12.0046 8.17573 11.9872 8.25697 11.9534C8.33821 11.9195 8.41194 11.8699 8.47392 11.8074C8.5364 11.7455 8.586 11.6717 8.61984 11.5905C8.65369 11.5093 8.67111 11.4221 8.67111 11.3341C8.67111 11.2461 8.65369 11.159 8.61984 11.0777C8.586 10.9965 8.5364 10.9228 8.47392 10.8608L6.27392 8.66744H11.3339C11.5107 8.66744 11.6803 8.5972 11.8053 8.47218C11.9303 8.34716 12.0006 8.17759 12.0006 8.00078C12.0006 7.82396 11.9303 7.6544 11.8053 7.52937C11.6803 7.40435 11.5107 7.33411 11.3339 7.33411Z" fill="#D2D4DA"/>
</svg>
