<svg width="40" height="40" viewBox="0 0 40 40" fill="none" xmlns="http://www.w3.org/2000/svg">
<mask id="mask0_169_2583" style="mask-type:alpha" maskUnits="userSpaceOnUse" x="0" y="0" width="40" height="40">
<rect width="40" height="40" fill="#D9D9D9"/>
</mask>
<g mask="url(#mask0_169_2583)">
<path d="M5.91682 35.0003H10.0002V31.667C10.0002 31.1948 10.1599 30.7989 10.4793 30.4795C10.7988 30.16 11.1946 30.0003 11.6668 30.0003C12.139 30.0003 12.5349 30.16 12.8543 30.4795C13.1738 30.7989 13.3335 31.1948 13.3335 31.667V35.0003H18.3335V31.667C18.3335 31.1948 18.4932 30.7989 18.8127 30.4795C19.1321 30.16 19.5279 30.0003 20.0002 30.0003C20.4724 30.0003 20.8682 30.16 21.1877 30.4795C21.5071 30.7989 21.6668 31.1948 21.6668 31.667V35.0003H26.6668V31.667C26.6668 31.1948 26.8265 30.7989 27.146 30.4795C27.4654 30.16 27.8613 30.0003 28.3335 30.0003C28.8057 30.0003 29.2015 30.16 29.521 30.4795C29.8404 30.7989 30.0002 31.1948 30.0002 31.667V35.0003H34.0835L32.4168 28.3337H7.58349L5.91682 35.0003ZM34.0835 38.3337H5.91682C4.83349 38.3337 3.95849 37.9031 3.29182 37.042C2.62515 36.1809 2.43071 35.2225 2.70849 34.167L5.00015 25.0003V21.667C5.00015 20.7503 5.32654 19.9656 5.97932 19.3128C6.6321 18.66 7.41682 18.3337 8.33349 18.3337H15.0002V6.66699C15.0002 5.2781 15.4863 4.09755 16.4585 3.12533C17.4307 2.1531 18.6113 1.66699 20.0002 1.66699C21.389 1.66699 22.5696 2.1531 23.5418 3.12533C24.514 4.09755 25.0002 5.2781 25.0002 6.66699V18.3337H31.6668C32.5835 18.3337 33.3682 18.66 34.021 19.3128C34.6738 19.9656 35.0002 20.7503 35.0002 21.667V25.0003L37.2918 34.167C37.6529 35.2225 37.4932 36.1809 36.8127 37.042C36.1321 37.9031 35.2224 38.3337 34.0835 38.3337Z" fill="#D2D4DA"/>
</g>
</svg>
 