<svg width="120" height="120" viewBox="0 0 120 120" fill="none" xmlns="http://www.w3.org/2000/svg">
<g clip-path="url(#clip0_45_2293)">
<path d="M0 34.1204V119.942H30.8261L31.4006 34.1204H0Z" fill="#E9EDF5"/>
<path d="M120.001 34.1201H87.7266L89.1744 119.941H120.001V34.1201Z" fill="#CDD2E1"/>
<path d="M30.8281 8H89.175V119.941H30.8281V8Z" fill="white"/>
<path d="M62.1359 116.928L42.7913 119.941H30.8281V8H62.1359V116.928Z" fill="white"/>
<path d="M89.1704 8H59.9023V117.276L77.2072 119.941H89.1704V8Z" fill="#E9EDF5"/>
<path d="M42.7891 18.1816H77.2095V28.8535H42.7891V18.1816Z" fill="#CDD2E1"/>
<path d="M59.9023 18.1816H77.2072V28.8535H59.9023V18.1816Z" fill="#AFB4C8"/>
<path d="M42.7891 36.0195H77.2095V46.6914H42.7891V36.0195Z" fill="#CDD2E1"/>
<path d="M59.9023 36.0195H77.2072V46.6914H59.9023V36.0195Z" fill="#AFB4C8"/>
<path d="M42.7891 53.8572H77.2095V64.5291H42.7891V53.8572Z" fill="#CDD2E1"/>
<path d="M59.9023 53.8574H77.2072V64.5293H59.9023V53.8574Z" fill="#AFB4C8"/>
<path d="M42.7891 71.6953H77.2095V82.3672H42.7891V71.6953Z" fill="#CDD2E1"/>
<path d="M59.9023 71.6953H77.2072V82.3672H59.9023V71.6953Z" fill="#AFB4C8"/>
<path d="M42.7891 94.0977H77.2095V119.942H42.7891V94.0977Z" fill="#CDD2E1"/>
<path d="M59.9023 94.0977H77.2072V119.942H59.9023V94.0977Z" fill="#AFB4C8"/>
<path d="M10.4883 44.8379H21.7898V55.5098H10.4883V44.8379Z" fill="#AFB4C8"/>
<path d="M10.4883 63.6963H21.7898V74.3682H10.4883V63.6963Z" fill="#AFB4C8"/>
<path d="M10.4883 82.5537H21.7898V93.2256H10.4883V82.5537Z" fill="#AFB4C8"/>
<path d="M10.4883 101.412H21.7898V112.084H10.4883V101.412Z" fill="#AFB4C8"/>
<path d="M98.2031 44.8379H109.505V55.5098H98.2031V44.8379Z" fill="#7E8596"/>
<path d="M98.2031 63.6953H109.505V74.3672H98.2031V63.6953Z" fill="#7E8596"/>
<path d="M98.2031 82.5537H109.505V93.2256H98.2031V82.5537Z" fill="#7E8596"/>
<path d="M98.2031 101.412H109.505V112.084H98.2031V101.412Z" fill="#7E8596"/>
</g>
<defs>
<clipPath id="clip0_45_2293">
<rect width="120" height="120" fill="white"/>
</clipPath>
</defs>
</svg>
