<svg width="16" height="17" viewBox="0 0 16 17" fill="none" xmlns="http://www.w3.org/2000/svg">
<g id="Icon">
<path id="Vector" d="M9.81399 6.3587L6.95399 9.22536L5.85399 8.12536C5.79422 8.05558 5.72068 7.9989 5.63797 7.95888C5.55526 7.91887 5.46517 7.89638 5.37336 7.89283C5.28154 7.88929 5.18999 7.90476 5.10444 7.93827C5.01889 7.97179 4.94119 8.02263 4.87622 8.0876C4.81125 8.15257 4.76041 8.23027 4.7269 8.31582C4.69338 8.40137 4.67791 8.49292 4.68146 8.58473C4.685 8.67655 4.70749 8.76664 4.7475 8.84935C4.78752 8.93205 4.8442 9.0056 4.91399 9.06536L6.48065 10.6387C6.54295 10.7005 6.61682 10.7494 6.69805 10.7825C6.77927 10.8157 6.86625 10.8325 6.95399 10.832C7.12888 10.8313 7.29648 10.7619 7.42065 10.6387L10.754 7.30536C10.8165 7.24339 10.8661 7.16966 10.8999 7.08842C10.9338 7.00718 10.9512 6.92004 10.9512 6.83203C10.9512 6.74402 10.9338 6.65689 10.8999 6.57565C10.8661 6.49441 10.8165 6.42067 10.754 6.3587C10.6291 6.23453 10.4601 6.16484 10.284 6.16484C10.1079 6.16484 9.9389 6.23453 9.81399 6.3587ZM8.00065 1.83203C6.68211 1.83203 5.39318 2.22302 4.29685 2.95557C3.20052 3.68811 2.34604 4.7293 1.84146 5.94747C1.33687 7.16565 1.20485 8.50609 1.46209 9.7993C1.71932 11.0925 2.35426 12.2804 3.28661 13.2127C4.21896 14.1451 5.40685 14.78 6.70005 15.0373C7.99326 15.2945 9.3337 15.1625 10.5519 14.6579C11.7701 14.1533 12.8112 13.2988 13.5438 12.2025C14.2763 11.1062 14.6673 9.81724 14.6673 8.4987C14.6673 7.62322 14.4949 6.75631 14.1599 5.94747C13.8248 5.13864 13.3338 4.40371 12.7147 3.78465C12.0956 3.1656 11.3607 2.67453 10.5519 2.3395C9.74304 2.00447 8.87613 1.83203 8.00065 1.83203ZM8.00065 13.832C6.94582 13.832 5.91467 13.5192 5.03761 12.9332C4.16055 12.3472 3.47696 11.5142 3.0733 10.5397C2.66963 9.56514 2.56401 8.49278 2.7698 7.45822C2.97559 6.42365 3.48354 5.47334 4.22942 4.72746C4.9753 3.98158 5.92561 3.47363 6.96017 3.26784C7.99474 3.06206 9.06709 3.16767 10.0416 3.57134C11.0162 3.97501 11.8491 4.65859 12.4352 5.53566C13.0212 6.41272 13.334 7.44386 13.334 8.4987C13.334 9.91319 12.7721 11.2697 11.7719 12.2699C10.7717 13.2701 9.41514 13.832 8.00065 13.832Z" fill="#9496A1"/>
</g>
</svg>
