<svg width="24" height="24" viewBox="0 0 24 24" fill="none" xmlns="http://www.w3.org/2000/svg">
<path fill-rule="evenodd" clip-rule="evenodd" d="M5.58096 5.58072C5.7919 5.37004 6.07784 5.25171 6.37596 5.25171C6.67409 5.25171 6.96003 5.37004 7.17096 5.58072L12.001 10.4107L16.831 5.58072C16.934 5.47019 17.0582 5.38154 17.1962 5.32005C17.3342 5.25856 17.4831 5.2255 17.6342 5.22283C17.7852 5.22017 17.9353 5.24795 18.0754 5.30453C18.2154 5.36112 18.3427 5.44533 18.4495 5.55216C18.5563 5.65899 18.6406 5.78624 18.6971 5.92632C18.7537 6.0664 18.7815 6.21645 18.7789 6.3675C18.7762 6.51856 18.7431 6.66753 18.6816 6.80553C18.6201 6.94352 18.5315 7.06773 18.421 7.17072L13.591 12.0007L18.421 16.8307C18.5315 16.9337 18.6201 17.0579 18.6816 17.1959C18.7431 17.3339 18.7762 17.4829 18.7789 17.6339C18.7815 17.785 18.7537 17.935 18.6971 18.0751C18.6406 18.2152 18.5563 18.3424 18.4495 18.4493C18.3427 18.5561 18.2154 18.6403 18.0754 18.6969C17.9353 18.7535 17.7852 18.7813 17.6342 18.7786C17.4831 18.7759 17.3342 18.7429 17.1962 18.6814C17.0582 18.6199 16.934 18.5312 16.831 18.4207L12.001 13.5907L7.17096 18.4207C6.9577 18.6194 6.67563 18.7276 6.38418 18.7225C6.09273 18.7173 5.81465 18.5993 5.60853 18.3932C5.40241 18.187 5.28434 17.909 5.2792 17.6175C5.27406 17.326 5.38224 17.044 5.58096 16.8307L10.411 12.0007L5.58096 7.17072C5.37029 6.95978 5.25195 6.67384 5.25195 6.37572C5.25195 6.07759 5.37029 5.79166 5.58096 5.58072Z" fill="#9496A1"/>
</svg>
