<svg width="72" height="72" viewBox="0 0 72 72" fill="none" xmlns="http://www.w3.org/2000/svg">
<mask id="mask0_169_2579" style="mask-type:alpha" maskUnits="userSpaceOnUse" x="0" y="0" width="72" height="72">
<rect width="72" height="72" fill="#D9D9D9"/>
</mask>
<g mask="url(#mask0_169_2579)">
<path d="M5.25 39.9755C4.4 39.9755 3.6875 39.688 3.1125 39.113C2.5375 38.538 2.25 37.8255 2.25 36.9755C2.25 36.1255 2.5375 35.413 3.1125 34.838C3.6875 34.263 4.4 33.9755 5.25 33.9755H15.75C16.6 33.9755 17.3125 34.263 17.8875 34.838C18.4625 35.413 18.75 36.1255 18.75 36.9755C18.75 37.8255 18.4625 38.538 17.8875 39.113C17.3125 39.688 16.6 39.9755 15.75 39.9755H5.25ZM21 60.0005C18.5 60.0005 16.375 59.1255 14.625 57.3755C12.875 55.6255 12 53.5005 12 51.0005H8.25C7.25 51.0005 6.45 50.6255 5.85 49.8755C5.25 49.1255 5.075 48.2755 5.325 47.3255L6 44.4755H15.375C17.475 44.4755 19.25 43.7505 20.7 42.3005C22.15 40.8505 22.875 39.0755 22.875 36.9755C22.875 36.3255 22.8 35.7255 22.65 35.1755C22.5 34.6255 22.3 34.0755 22.05 33.5255H24.9C27 33.5255 28.775 32.8005 30.225 31.3505C31.675 29.9005 32.4 28.1255 32.4 26.0255C32.4 23.9255 31.675 22.1505 30.225 20.7005C28.775 19.2505 27 18.5255 24.9 18.5255H13.5L13.95 16.7255C14.25 15.3255 14.9375 14.188 16.0125 13.313C17.0875 12.438 18.35 12.0005 19.8 12.0005H50.25C51.25 12.0005 52.05 12.3755 52.65 13.1255C53.25 13.8755 53.425 14.7255 53.175 15.6755L51.225 24.0005H57C57.95 24.0005 58.85 24.213 59.7 24.638C60.55 25.063 61.25 25.6505 61.8 26.4005L67.425 33.8255C67.975 34.5255 68.325 35.288 68.475 36.113C68.625 36.938 68.625 37.7755 68.475 38.6255L66.45 48.6005C66.3 49.3005 65.95 49.8755 65.4 50.3255C64.85 50.7755 64.225 51.0005 63.525 51.0005H60C60 53.5005 59.125 55.6255 57.375 57.3755C55.625 59.1255 53.5 60.0005 51 60.0005C48.5 60.0005 46.375 59.1255 44.625 57.3755C42.875 55.6255 42 53.5005 42 51.0005H30C30 53.5005 29.125 55.6255 27.375 57.3755C25.625 59.1255 23.5 60.0005 21 60.0005ZM11.25 29.0255C10.4 29.0255 9.6875 28.738 9.1125 28.163C8.5375 27.588 8.25 26.8755 8.25 26.0255C8.25 25.1755 8.5375 24.463 9.1125 23.888C9.6875 23.313 10.4 23.0255 11.25 23.0255H24.75C25.6 23.0255 26.3125 23.313 26.8875 23.888C27.4625 24.463 27.75 25.1755 27.75 26.0255C27.75 26.8755 27.4625 27.588 26.8875 28.163C26.3125 28.738 25.6 29.0255 24.75 29.0255H11.25ZM21 54.0005C21.85 54.0005 22.5625 53.713 23.1375 53.138C23.7125 52.563 24 51.8505 24 51.0005C24 50.1505 23.7125 49.438 23.1375 48.863C22.5625 48.288 21.85 48.0005 21 48.0005C20.15 48.0005 19.4375 48.288 18.8625 48.863C18.2875 49.438 18 50.1505 18 51.0005C18 51.8505 18.2875 52.563 18.8625 53.138C19.4375 53.713 20.15 54.0005 21 54.0005ZM51 54.0005C51.85 54.0005 52.5625 53.713 53.1375 53.138C53.7125 52.563 54 51.8505 54 51.0005C54 50.1505 53.7125 49.438 53.1375 48.863C52.5625 48.288 51.85 48.0005 51 48.0005C50.15 48.0005 49.4375 48.288 48.8625 48.863C48.2875 49.438 48 50.1505 48 51.0005C48 51.8505 48.2875 52.563 48.8625 53.138C49.4375 53.713 50.15 54.0005 51 54.0005ZM47.775 39.0005H62.25L62.55 37.4255L57 30.0005H49.875L47.775 39.0005Z" fill="#D2D4DA"/>
</g>
</svg>
