<svg width="16" height="15" viewBox="0 0 16 15" fill="none" xmlns="http://www.w3.org/2000/svg">
<path d="M14.5508 9C14.3519 9 14.1611 9.07902 14.0205 9.21967C13.8798 9.36032 13.8008 9.55109 13.8008 9.75V12.75C13.8008 12.9489 13.7218 13.1397 13.5811 13.2803C13.4405 13.421 13.2497 13.5 13.0508 13.5H2.55078C2.35187 13.5 2.1611 13.421 2.02045 13.2803C1.8798 13.1397 1.80078 12.9489 1.80078 12.75V9.75C1.80078 9.55109 1.72176 9.36032 1.58111 9.21967C1.44046 9.07902 1.24969 9 1.05078 9C0.851869 9 0.661103 9.07902 0.520451 9.21967C0.379799 9.36032 0.300781 9.55109 0.300781 9.75V12.75C0.300781 13.3467 0.537834 13.919 0.959791 14.341C1.38175 14.7629 1.95404 15 2.55078 15H13.0508C13.6475 15 14.2198 14.7629 14.6418 14.341C15.0637 13.919 15.3008 13.3467 15.3008 12.75V9.75C15.3008 9.55109 15.2218 9.36032 15.0811 9.21967C14.9405 9.07902 14.7497 9 14.5508 9ZM7.26828 10.2825C7.33961 10.3508 7.42372 10.4043 7.51578 10.44C7.60556 10.4797 7.70263 10.5002 7.80078 10.5002C7.89893 10.5002 7.99601 10.4797 8.08578 10.44C8.17785 10.4043 8.26195 10.3508 8.33328 10.2825L11.3333 7.2825C11.4745 7.14127 11.5539 6.94973 11.5539 6.75C11.5538 6.55027 11.4745 6.35873 11.3333 6.2175C11.1921 6.07627 11.0005 5.99693 10.8008 5.99693C10.6011 5.99693 10.4095 6.07627 10.2683 6.2175L8.55078 7.9425V0.75C8.55078 0.551088 8.47176 0.360322 8.33111 0.21967C8.19046 0.0790176 7.99969 0 7.80078 0C7.60187 0 7.4111 0.0790176 7.27045 0.21967C7.1298 0.360322 7.05078 0.551088 7.05078 0.75V7.9425L5.33328 6.2175C5.26335 6.14757 5.18034 6.0921 5.08897 6.05426C4.9976 6.01641 4.89968 5.99693 4.80078 5.99693C4.70189 5.99693 4.60396 6.01641 4.51259 6.05426C4.42123 6.0921 4.33821 6.14757 4.26828 6.2175C4.19835 6.28743 4.14288 6.37045 4.10504 6.46181C4.06719 6.55318 4.04771 6.65111 4.04771 6.75C4.04771 6.84889 4.06719 6.94682 4.10504 7.03819C4.14288 7.12955 4.19835 7.21257 4.26828 7.2825L7.26828 10.2825Z" fill="#1C35EA"/>
</svg>
