<svg width="96" height="96" viewBox="0 0 96 96" fill="none" xmlns="http://www.w3.org/2000/svg">
<mask id="mask0_169_2571" style="mask-type:alpha" maskUnits="userSpaceOnUse" x="0" y="0" width="96" height="96">
<rect width="96" height="96" fill="#D9D9D9"/>
</mask>
<g mask="url(#mask0_169_2571)">
<path d="M4.20032 80V72.8C4.20032 70.6 4.76698 68.5333 5.90032 66.6C7.03365 64.6667 8.60032 63.2 10.6003 62.2C14.0003 60.4667 17.8337 59 22.1003 57.8C26.367 56.6 31.067 56 36.2003 56C41.3336 56 46.0337 56.6 50.3003 57.8C54.567 59 58.4003 60.4667 61.8003 62.2C63.8003 63.2 65.367 64.6667 66.5003 66.6C67.6337 68.5333 68.2003 70.6 68.2003 72.8V80C68.2003 81.1333 67.817 82.0833 67.0503 82.85C66.2837 83.6167 65.3337 84 64.2003 84H8.20032C7.06698 84 6.11698 83.6167 5.35032 82.85C4.58365 82.0833 4.20032 81.1333 4.20032 80ZM36.2003 52C31.8003 52 28.0337 50.4333 24.9003 47.3C21.767 44.1667 20.2003 40.4 20.2003 36H19.2003C18.6003 36 18.117 35.8167 17.7503 35.45C17.3837 35.0833 17.2003 34.6 17.2003 34C17.2003 33.4 17.3837 32.9167 17.7503 32.55C18.117 32.1833 18.6003 32 19.2003 32H20.2003C20.2003 29 20.9337 26.3 22.4003 23.9C23.867 21.5 25.8003 19.6 28.2003 18.2V22C28.2003 22.6 28.3837 23.0833 28.7503 23.45C29.117 23.8167 29.6003 24 30.2003 24C30.8003 24 31.2837 23.8167 31.6503 23.45C32.017 23.0833 32.2003 22.6 32.2003 22V16.6C32.8003 16.4 33.4337 16.25 34.1003 16.15C34.767 16.05 35.467 16 36.2003 16C36.9337 16 37.6337 16.05 38.3003 16.15C38.967 16.25 39.6003 16.4 40.2003 16.6V22C40.2003 22.6 40.3837 23.0833 40.7503 23.45C41.117 23.8167 41.6003 24 42.2003 24C42.8003 24 43.2837 23.8167 43.6503 23.45C44.017 23.0833 44.2003 22.6 44.2003 22V18.2C46.6003 19.6 48.5336 21.5 50.0003 23.9C51.467 26.3 52.2003 29 52.2003 32H53.2003C53.8003 32 54.2837 32.1833 54.6503 32.55C55.017 32.9167 55.2003 33.4 55.2003 34C55.2003 34.6 55.017 35.0833 54.6503 35.45C54.2837 35.8167 53.8003 36 53.2003 36H52.2003C52.2003 40.4 50.6337 44.1667 47.5003 47.3C44.367 50.4333 40.6003 52 36.2003 52ZM36.2003 44C38.4003 44 40.2837 43.2167 41.8503 41.65C43.417 40.0833 44.2003 38.2 44.2003 36H28.2003C28.2003 38.2 28.9837 40.0833 30.5503 41.65C32.117 43.2167 34.0003 44 36.2003 44ZM65.9003 58.4L65.6003 57C65.2003 56.8667 64.817 56.7167 64.4503 56.55C64.0837 56.3833 63.7337 56.1333 63.4003 55.8L62.2003 56.2C61.7337 56.3333 61.2837 56.3333 60.8503 56.2C60.417 56.0667 60.067 55.7667 59.8003 55.3L59.4003 54.6C59.1337 54.2 59.0503 53.7667 59.1503 53.3C59.2503 52.8333 59.467 52.4333 59.8003 52.1L60.8003 51.2V48.8L59.8003 47.9C59.467 47.5667 59.2503 47.1667 59.1503 46.7C59.0503 46.2333 59.1337 45.8 59.4003 45.4L59.8003 44.7C60.067 44.2333 60.417 43.9333 60.8503 43.8C61.2837 43.6667 61.7337 43.6667 62.2003 43.8L63.4003 44.2C63.667 43.9333 64.0003 43.7 64.4003 43.5C64.8003 43.3 65.2003 43.1333 65.6003 43L65.9003 41.6C66.0337 41.1333 66.267 40.75 66.6003 40.45C66.9337 40.15 67.3337 40 67.8003 40H68.6003C69.067 40 69.467 40.15 69.8003 40.45C70.1337 40.75 70.367 41.1333 70.5003 41.6L70.8003 43C71.2003 43.1333 71.6003 43.3 72.0003 43.5C72.4003 43.7 72.7337 43.9333 73.0003 44.2L74.2003 43.8C74.667 43.6667 75.117 43.6667 75.5503 43.8C75.9837 43.9333 76.3336 44.2333 76.6003 44.7L77.0003 45.4C77.267 45.8 77.3503 46.2333 77.2503 46.7C77.1503 47.1667 76.9337 47.5667 76.6003 47.9L75.6003 48.8V51.2L76.6003 52.1C76.9337 52.4333 77.1503 52.8333 77.2503 53.3C77.3503 53.7667 77.267 54.2 77.0003 54.6L76.6003 55.3C76.3336 55.7667 75.9837 56.0667 75.5503 56.2C75.117 56.3333 74.667 56.3333 74.2003 56.2L73.0003 55.8C72.667 56.1333 72.317 56.3833 71.9503 56.55C71.5836 56.7167 71.2003 56.8667 70.8003 57L70.5003 58.4C70.367 58.8667 70.1337 59.25 69.8003 59.55C69.467 59.85 69.067 60 68.6003 60H67.8003C67.3337 60 66.9337 59.85 66.6003 59.55C66.267 59.25 66.0337 58.8667 65.9003 58.4ZM68.2003 53C69.0003 53 69.7003 52.7 70.3003 52.1C70.9003 51.5 71.2003 50.8 71.2003 50C71.2003 49.2 70.9003 48.5 70.3003 47.9C69.7003 47.3 69.0003 47 68.2003 47C67.4003 47 66.7003 47.3 66.1003 47.9C65.5003 48.5 65.2003 49.2 65.2003 50C65.2003 50.8 65.5003 51.5 66.1003 52.1C66.7003 52.7 67.4003 53 68.2003 53ZM75.0003 37.8L74.6003 35.8C74.0003 35.6 73.4503 35.35 72.9503 35.05C72.4503 34.75 72.0003 34.4 71.6003 34L69.5003 34.7C68.9003 34.9 68.3003 34.8833 67.7003 34.65C67.1003 34.4167 66.6337 34.0333 66.3003 33.5L65.7003 32.5C65.367 31.9667 65.2503 31.3833 65.3503 30.75C65.4503 30.1167 65.767 29.5667 66.3003 29.1L68.0003 27.6C67.867 27.2667 67.8003 27 67.8003 26.8V25.2C67.8003 25 67.867 24.7333 68.0003 24.4L66.3003 22.9C65.767 22.4333 65.4503 21.8833 65.3503 21.25C65.2503 20.6167 65.367 20.0333 65.7003 19.5L66.3003 18.5C66.6337 17.9667 67.1003 17.5833 67.7003 17.35C68.3003 17.1167 68.9003 17.1 69.5003 17.3L71.6003 18C72.0003 17.6 72.4503 17.25 72.9503 16.95C73.4503 16.65 74.0003 16.4 74.6003 16.2L75.0003 14.2C75.1337 13.5333 75.4503 13 75.9503 12.6C76.4503 12.2 77.0337 12 77.7003 12H78.7003C79.367 12 79.9503 12.2 80.4503 12.6C80.9503 13 81.267 13.5333 81.4003 14.2L81.8003 16.2C82.4003 16.4 82.9503 16.65 83.4503 16.95C83.9503 17.25 84.4003 17.6 84.8003 18L86.9003 17.3C87.5003 17.1 88.1003 17.1167 88.7003 17.35C89.3003 17.5833 89.767 17.9667 90.1003 18.5L90.7003 19.5C91.0337 20.0333 91.1503 20.6167 91.0503 21.25C90.9503 21.8833 90.6337 22.4333 90.1003 22.9L88.4003 24.4C88.5337 24.7333 88.6003 25 88.6003 25.2V26.8C88.6003 27 88.5337 27.2667 88.4003 27.6L90.1003 29.1C90.6337 29.5667 90.9503 30.1167 91.0503 30.75C91.1503 31.3833 91.0337 31.9667 90.7003 32.5L90.1003 33.5C89.767 34.0333 89.3003 34.4167 88.7003 34.65C88.1003 34.8833 87.5003 34.9 86.9003 34.7L84.8003 34C84.4003 34.4 83.9503 34.75 83.4503 35.05C82.9503 35.35 82.4003 35.6 81.8003 35.8L81.4003 37.8C81.267 38.4667 80.9503 39 80.4503 39.4C79.9503 39.8 79.367 40 78.7003 40H77.7003C77.0337 40 76.4503 39.8 75.9503 39.4C75.4503 39 75.1337 38.4667 75.0003 37.8ZM78.2003 31C79.6003 31 80.7837 30.5167 81.7503 29.55C82.717 28.5833 83.2003 27.4 83.2003 26C83.2003 24.6 82.717 23.4167 81.7503 22.45C80.7837 21.4833 79.6003 21 78.2003 21C76.8003 21 75.617 21.4833 74.6503 22.45C73.6837 23.4167 73.2003 24.6 73.2003 26C73.2003 27.4 73.6837 28.5833 74.6503 29.55C75.617 30.5167 76.8003 31 78.2003 31Z" fill="#D2D4DA"/>
</g>
</svg>
 