<svg width="24" height="24" viewBox="0 0 24 24" fill="none" xmlns="http://www.w3.org/2000/svg">
<path fill-rule="evenodd" clip-rule="evenodd" d="M23.9739 12.0004C23.9739 12.0004 22.6499 9.85852 20.3704 7.8125L17.0937 11.1362C17.1395 11.4174 17.1638 11.7061 17.1638 12.0001C17.1638 14.8924 14.852 17.2373 12.0006 17.2373C11.7103 17.2373 11.4261 17.2131 11.1489 17.1662L8.9375 19.4093C9.8911 19.6877 10.9139 19.8505 12.0013 19.8505C19.175 19.8505 23.9739 12.0004 23.9739 12.0004Z" fill="#CCD1FF"/>
<path fill-rule="evenodd" clip-rule="evenodd" d="M0.0273438 12.0005C0.0273438 12.0005 2.16465 15.7984 6.00805 18.1105L17.9395 5.97629C16.2344 4.91937 14.228 4.15039 12 4.15039C4.88328 4.15039 0.0273438 12.0005 0.0273438 12.0005ZM6.83594 12.0009C6.83594 13.4468 7.41352 14.7561 8.34795 15.7039L15.6499 8.29735C14.7154 7.35001 13.4251 6.76367 11.9991 6.76367C9.14769 6.76367 6.83594 9.10855 6.83594 12.0009Z" fill="#CCD1FF"/>
<path d="M20 4L4 20" stroke="#1C35EA" stroke-miterlimit="10"/>
</svg>
