<svg xmlns="http://www.w3.org/2000/svg" width="23" height="24" viewBox="0 0 23 24" fill="none">
  <mask id="mask0_76_11102" style="mask-type:alpha" maskUnits="userSpaceOnUse" x="0" y="0" width="23" height="24">
    <rect x="0.667969" y="0.888672" width="22.2222" height="22.2222" fill="#D9D9D9"/>
  </mask>
  <g mask="url(#mask0_76_11102)">
    <path d="M11.7823 17.5549L7.89337 19.2216C7.27609 19.4839 6.68967 19.4338 6.13411 19.0711C5.57856 18.7085 5.30078 18.1953 5.30078 17.5318V5.51787C5.30078 5.00861 5.48211 4.57265 5.84476 4.21C6.20742 3.84734 6.64337 3.66602 7.15263 3.66602H16.4119C16.9212 3.66602 17.3571 3.84734 17.7198 4.21C18.0824 4.57265 18.2637 5.00861 18.2637 5.51787V17.5318C18.2637 18.1953 17.986 18.7085 17.4304 19.0711C16.8749 19.4338 16.2884 19.4839 15.6712 19.2216L11.7823 17.5549ZM11.7823 15.5179L16.4119 17.5086V5.51787H7.15263V17.5086L11.7823 15.5179Z" fill="#9496A1"/>
  </g>
</svg>