<svg width="20" height="20" viewBox="0 0 20 20" fill="none" xmlns="http://www.w3.org/2000/svg">
<path id="Vector" d="M10 0C8.02221 0 6.08879 0.586474 4.4443 1.68529C2.79981 2.7841 1.51809 4.3459 0.761217 6.17316C0.00434237 8.00041 -0.193703 10.0111 0.192148 11.9509C0.577999 13.8907 1.5304 15.6725 2.92892 17.071C4.32744 18.4696 6.10926 19.422 8.04906 19.8078C9.98887 20.1937 11.9996 19.9956 13.8268 19.2387C15.6541 18.4819 17.2159 17.2001 18.3147 15.5556C19.4135 13.9112 20 11.9778 20 9.99999C19.9957 7.34914 18.9408 4.80806 17.0664 2.93362C15.1919 1.05919 12.6509 0.00426868 10 0ZM10 18.3858C9.25748 18.3858 8.28898 16.9975 7.6998 14.6166H12.3002C11.7191 16.9975 10.7506 18.3858 10 18.3858ZM7.3931 13.0024C7.11328 11.0105 7.11328 8.98938 7.3931 6.99755H12.615C12.8948 8.98938 12.8948 11.0105 12.615 13.0024H7.3931ZM1.61423 9.99999C1.61839 8.97315 1.80981 7.95566 2.17916 6.99755H5.77082C5.50176 8.99011 5.50176 11.0098 5.77082 13.0024H2.17916C1.80911 12.0445 1.61767 11.0269 1.61423 9.99999ZM10 1.6142C10.7506 1.6142 11.7191 3.01047 12.3002 5.38335H7.6998C8.28898 3.01047 9.25748 1.6142 10 1.6142ZM14.2292 6.99755H17.8208C18.5744 8.92821 18.5744 11.0717 17.8208 13.0024H14.2292C14.4983 11.0098 14.4983 8.99011 14.2292 6.99755ZM16.9976 5.38335H13.9548C13.7223 4.23848 13.3282 3.13245 12.7845 2.09844C14.5077 2.70796 15.9863 3.86079 16.9976 5.38335ZM7.21556 2.09844C6.67463 3.13288 6.28327 4.23889 6.05328 5.38335H3.0105C4.01842 3.86096 5.49448 2.70793 7.21556 2.09844ZM3.0105 14.6166H6.05328C6.28327 15.761 6.67463 16.867 7.21556 17.9015C5.49448 17.292 4.01842 16.139 3.0105 14.6166ZM12.7845 17.9015C13.3282 16.8675 13.7223 15.7614 13.9548 14.6166H16.9976C15.9863 16.1391 14.5077 17.292 12.7845 17.9015Z" fill="#1C35EA"/>
</svg>
