<svg width="20" height="20" viewBox="0 0 20 20" fill="none" xmlns="http://www.w3.org/2000/svg">
<mask id="mask0_1_6986" style="mask-type:alpha" maskUnits="userSpaceOnUse" x="0" y="0" width="21" height="20">
<rect x="0.5" width="20" height="20" fill="#D9D9D9"/>
</mask>
<g mask="url(#mask0_1_6986)">
<path d="M10.5001 17.5002L9.29175 16.4168C7.88897 15.1529 6.72925 14.0627 5.81258 13.146C4.89591 12.2293 4.16675 11.4064 3.62508 10.6772C3.08341 9.94808 2.70494 9.27794 2.48966 8.66683C2.27439 8.05572 2.16675 7.43072 2.16675 6.79183C2.16675 5.48627 2.60425 4.396 3.47925 3.521C4.35425 2.646 5.44453 2.2085 6.75008 2.2085C7.4723 2.2085 8.1598 2.36127 8.81258 2.66683C9.46536 2.97238 10.0279 3.40294 10.5001 3.9585C10.9723 3.40294 11.5348 2.97238 12.1876 2.66683C12.8404 2.36127 13.5279 2.2085 14.2501 2.2085C15.5556 2.2085 16.6459 2.646 17.5209 3.521C18.3959 4.396 18.8334 5.48627 18.8334 6.79183C18.8334 7.43072 18.7258 8.05572 18.5105 8.66683C18.2952 9.27794 17.9167 9.94808 17.3751 10.6772C16.8334 11.4064 16.1042 12.2293 15.1876 13.146C14.2709 14.0627 13.1112 15.1529 11.7084 16.4168L10.5001 17.5002ZM10.5001 15.2502C11.8334 14.0557 12.9306 13.0314 13.7917 12.1772C14.6529 11.3231 15.3334 10.58 15.8334 9.94808C16.3334 9.31613 16.6806 8.75363 16.8751 8.26058C17.0695 7.76752 17.1667 7.27794 17.1667 6.79183C17.1667 5.9585 16.889 5.26405 16.3334 4.7085C15.7779 4.15294 15.0834 3.87516 14.2501 3.87516C13.5973 3.87516 12.9931 4.05919 12.4376 4.42725C11.882 4.7953 11.5001 5.26405 11.2917 5.8335H9.70842C9.50008 5.26405 9.11814 4.7953 8.56258 4.42725C8.00703 4.05919 7.40286 3.87516 6.75008 3.87516C5.91675 3.87516 5.2223 4.15294 4.66675 4.7085C4.11119 5.26405 3.83341 5.9585 3.83341 6.79183C3.83341 7.27794 3.93064 7.76752 4.12508 8.26058C4.31953 8.75363 4.66675 9.31613 5.16675 9.94808C5.66675 10.58 6.3473 11.3231 7.20842 12.1772C8.06953 13.0314 9.16675 14.0557 10.5001 15.2502Z" fill="#404252"/>
</g>
</svg>
