<svg width="38" height="38" viewBox="0 0 38 38" fill="none" xmlns="http://www.w3.org/2000/svg">
<path d="M31 7H7C5.34315 7 4 8.34315 4 10V28C4 29.6569 5.34315 31 7 31H31C32.6569 31 34 29.6569 34 28V10C34 8.34315 32.6569 7 31 7Z" fill="white"/>
<path d="M31.5 7H6.5C5.11929 7 4 8.11929 4 9.5C4 10.8807 5.11929 12 6.5 12H31.5C32.8807 12 34 10.8807 34 9.5C34 8.11929 32.8807 7 31.5 7Z" fill="#4035EA"/>
<path d="M7.49998 10.9C8.27317 10.9 8.89998 10.2732 8.89998 9.50001C8.89998 8.72681 8.27317 8.10001 7.49998 8.10001C6.72678 8.10001 6.09998 8.72681 6.09998 9.50001C6.09998 10.2732 6.72678 10.9 7.49998 10.9Z" fill="#EF4444"/>
<path d="M11 10.9C11.7732 10.9 12.4 10.2732 12.4 9.50001C12.4 8.72681 11.7732 8.10001 11 8.10001C10.2268 8.10001 9.59998 8.72681 9.59998 9.50001C9.59998 10.2732 10.2268 10.9 11 10.9Z" fill="#F59E0B"/>
<path d="M14.5 10.9C15.2732 10.9 15.9 10.2732 15.9 9.50001C15.9 8.72681 15.2732 8.10001 14.5 8.10001C13.7268 8.10001 13.1 8.72681 13.1 9.50001C13.1 10.2732 13.7268 10.9 14.5 10.9Z" fill="#10B981"/>
<path d="M28.5 16H9.5C8.67157 16 8 16.6716 8 17.5C8 18.3284 8.67157 19 9.5 19H28.5C29.3284 19 30 18.3284 30 17.5C30 16.6716 29.3284 16 28.5 16Z" fill="#6B7280"/>
<path d="M22.9 21H9.1C8.49249 21 8 21.4925 8 22.1C8 22.7075 8.49249 23.2 9.1 23.2H22.9C23.5075 23.2 24 22.7075 24 22.1C24 21.4925 23.5075 21 22.9 21Z" fill="#9CA3AF"/>
<path d="M26.9 25.5H9.1C8.49249 25.5 8 25.9925 8 26.6C8 27.2075 8.49249 27.7 9.1 27.7H26.9C27.5075 27.7 28 27.2075 28 26.6C28 25.9925 27.5075 25.5 26.9 25.5Z" fill="#9CA3AF"/>
</svg>
