<svg width="38" height="38" viewBox="0 0 38 38" fill="none" xmlns="http://www.w3.org/2000/svg">
<path opacity="0.8" d="M31 7H7C6.44772 7 6 7.44772 6 8V10C6 10.5523 6.44772 11 7 11H31C31.5523 11 32 10.5523 32 10V8C32 7.44772 31.5523 7 31 7Z" fill="#D9D9D9"/>
<path d="M7.49999 16.7C8.16273 16.7 8.69999 16.1627 8.69999 15.5C8.69999 14.8373 8.16273 14.3 7.49999 14.3C6.83725 14.3 6.29999 14.8373 6.29999 15.5C6.29999 16.1627 6.83725 16.7 7.49999 16.7Z" fill="#D9D9D9"/>
<path d="M27.1 14.5H10.9C10.4029 14.5 10 14.9029 10 15.4C10 15.8971 10.4029 16.3 10.9 16.3H27.1C27.5971 16.3 28 15.8971 28 15.4C28 14.9029 27.5971 14.5 27.1 14.5Z" fill="#4035EA"/>
<path d="M7.49999 20.2C8.16273 20.2 8.69999 19.6627 8.69999 19C8.69999 18.3373 8.16273 17.8 7.49999 17.8C6.83725 17.8 6.29999 18.3373 6.29999 19C6.29999 19.6627 6.83725 20.2 7.49999 20.2Z" fill="#D9D9D9"/>
<path d="M25.1 18H10.9C10.4029 18 10 18.4029 10 18.9C10 19.3971 10.4029 19.8 10.9 19.8H25.1C25.5971 19.8 26 19.3971 26 18.9C26 18.4029 25.5971 18 25.1 18Z" fill="#4035EA"/>
<path d="M7.49999 23.7C8.16273 23.7 8.69999 23.1627 8.69999 22.5C8.69999 21.8373 8.16273 21.3 7.49999 21.3C6.83725 21.3 6.29999 21.8373 6.29999 22.5C6.29999 23.1627 6.83725 23.7 7.49999 23.7Z" fill="#D9D9D9"/>
<path opacity="0.7" d="M29.1 21.5H10.9C10.4029 21.5 10 21.9029 10 22.4C10 22.8971 10.4029 23.3 10.9 23.3H29.1C29.5971 23.3 30 22.8971 30 22.4C30 21.9029 29.5971 21.5 29.1 21.5Z" fill="#D9D9D9"/>
<path d="M30 26H8C6.89543 26 6 26.8954 6 28C6 29.1046 6.89543 30 8 30H30C31.1046 30 32 29.1046 32 28C32 26.8954 31.1046 26 30 26Z" fill="#D9D9D9"/>
</svg>
