<svg width="38" height="38" viewBox="0 0 38 38" fill="none" xmlns="http://www.w3.org/2000/svg">
<path opacity="0.8" d="M30 7H8C6.89543 7 6 7.89543 6 9C6 10.1046 6.89543 11 8 11H30C31.1046 11 32 10.1046 32 9C32 7.89543 31.1046 7 30 7Z" fill="#D9D9D9"/>
<path d="M7.49999 10.2C8.16273 10.2 8.69999 9.66274 8.69999 9C8.69999 8.33726 8.16273 7.8 7.49999 7.8C6.83725 7.8 6.29999 8.33726 6.29999 9C6.29999 9.66274 6.83725 10.2 7.49999 10.2Z" fill="#FD5E5E"/>
<path d="M10.5 10.2C11.1627 10.2 11.7 9.66274 11.7 9C11.7 8.33726 11.1627 7.8 10.5 7.8C9.83725 7.8 9.29999 8.33726 9.29999 9C9.29999 9.66274 9.83725 10.2 10.5 10.2Z" fill="#FFFC38"/>
<path d="M13.5 10.2C14.1627 10.2 14.7 9.66274 14.7 9C14.7 8.33726 14.1627 7.8 13.5 7.8C12.8372 7.8 12.3 8.33726 12.3 9C12.3 9.66274 12.8372 10.2 13.5 10.2Z" fill="#38F862"/>
<path d="M30 13H8C6.89543 13 6 13.8954 6 15V16C6 17.1046 6.89543 18 8 18H30C31.1046 18 32 17.1046 32 16V15C32 13.8954 31.1046 13 30 13Z" fill="#4035EA"/>
<path opacity="0.6" d="M11 19.5H8C6.89543 19.5 6 20.3954 6 21.5V28.5C6 29.6046 6.89543 30.5 8 30.5H11C12.1046 30.5 13 29.6046 13 28.5V21.5C13 20.3954 12.1046 19.5 11 19.5Z" fill="#D9D9D9"/>
<path opacity="0.6" d="M20.5 19.5H17.5C16.3954 19.5 15.5 20.3954 15.5 21.5V28.5C15.5 29.6046 16.3954 30.5 17.5 30.5H20.5C21.6046 30.5 22.5 29.6046 22.5 28.5V21.5C22.5 20.3954 21.6046 19.5 20.5 19.5Z" fill="#D9D9D9"/>
<path opacity="0.6" d="M30 19.5H27C25.8954 19.5 25 20.3954 25 21.5V28.5C25 29.6046 25.8954 30.5 27 30.5H30C31.1046 30.5 32 29.6046 32 28.5V21.5C32 20.3954 31.1046 19.5 30 19.5Z" fill="#D9D9D9"/>
</svg>
