<svg width="378" height="64" viewBox="0 0 378 64" fill="none" xmlns="http://www.w3.org/2000/svg">
<path d="M134.972 16.9217C132.458 16.9217 130.077 17.4535 127.926 18.4084V16.4866H117.507V63.7825H127.926V34.3872C127.926 30.4953 131.092 27.3406 134.972 27.3406C137.233 27.3406 139.372 28.4405 140.689 30.2656L149.126 24.1618C145.85 19.6292 140.556 16.9217 134.972 16.9217Z" fill="#101223"/>
<path d="M252.239 16.0514H241.82V63.7824H252.239V16.0514Z" fill="#101223"/>
<path d="M247.019 0C243.429 0 240.516 2.91294 240.516 6.50274C240.516 10.0925 243.429 13.0055 247.019 13.0055C250.609 13.0055 253.522 10.0925 253.522 6.50274C253.522 2.91294 250.621 0 247.019 0Z" fill="#101223"/>
<path d="M344.208 24.5243C339.809 19.3027 333.221 15.9909 325.885 15.9909C312.674 15.9909 301.916 26.7483 301.916 39.9592C301.916 53.1701 312.674 63.9274 325.885 63.9274C333.39 63.9274 340.099 60.4585 344.486 55.0436L348.983 50.5473L341.622 43.1864L334.14 50.6681L334.152 50.6802C331.855 52.457 328.991 53.5086 325.885 53.5086C318.415 53.5086 312.335 47.4289 312.335 39.9592C312.335 32.4895 318.415 26.4098 325.885 26.4098C329.063 26.4098 331.988 27.5097 334.297 29.3469L349.43 44.4797L352.258 47.2959L362.895 57.9324L377.653 57.9686L344.208 24.5243Z" fill="#101223"/>
<path d="M214.263 47.9486L202.164 16.0514H178.474L163.716 33.6378V0H153.297V63.7824H163.716V40.0559L181.556 63.7824H194.61L174.437 37.0583L191.359 16.8974L209.126 63.7824H219.4L237.494 16.0514H226.362L214.263 47.9486Z" fill="#101223"/>
<path d="M279.57 25.8176C283.365 25.8176 286.592 27.957 286.918 30.5919H297.349C297.216 26.4461 295.21 22.4816 291.789 19.6533C288.478 16.9096 284.138 15.4108 279.57 15.4108C275.001 15.4108 270.662 16.9217 267.35 19.6533C263.808 22.5783 261.778 26.7362 261.778 31.027C261.778 34.3268 262.926 37.3122 264.92 39.7417C267.833 43.2831 272.559 45.6159 278.167 45.9543V46.0027C281.564 46.0994 285.214 47.5619 285.214 49.5079C285.214 51.3934 281.987 53.5932 277.841 53.5932C273.816 53.5932 270.674 51.5384 270.48 49.6892H260.061C260.122 53.7383 262.225 57.5819 265.863 60.2652C269.127 62.6825 273.393 64 277.853 64C282.325 64 286.58 62.6705 289.843 60.2652C293.53 57.5456 295.645 53.6174 295.645 49.5079C295.645 46.462 294.521 43.7183 292.563 41.4701C289.626 38.11 284.827 35.9101 279.134 35.62V35.5717C275.653 35.4388 272.209 33.7587 272.209 31.027C272.197 28.1987 275.569 25.8176 279.57 25.8176Z" fill="#101223"/>
<path d="M43.5368 45.1083L36.5989 22.1312H25.7207L18.7829 45.1083L10.8056 16.4866H0L13.1746 63.7825H24.0166L31.1598 40.1406L38.3032 63.7825H49.1451L62.3198 16.4866H51.5142L43.5368 45.1083Z" fill="#101223"/>
<path d="M377.582 21.9497L362.885 21.9134L355.5 29.2985L362.861 36.6594L377.582 21.9497Z" fill="#1C35EA"/>
<path d="M89.0781 16.1239V16.0635H69.2798L66.3668 26.4824H87.4464C94.9161 26.4824 100.996 32.5621 100.996 40.0318C100.996 47.5014 94.9161 53.5811 87.4464 53.5811C79.9767 53.5811 73.8969 47.5014 73.8969 40.0318C73.8969 36.4782 75.2748 33.2389 77.523 30.8095H65.3273C64.1428 33.6499 63.478 36.7683 63.478 40.0318C63.478 53.2427 74.2354 64 87.4464 64C100.657 64 111.415 53.2427 111.415 40.0318C111.427 27.3526 101.54 16.9579 89.0781 16.1239Z" fill="#101223"/>
</svg>
