<svg xmlns="http://www.w3.org/2000/svg" viewBox="0 0 424.42 65.26"><defs><style>.cls-1{fill:#fff;}.cls-2{fill:#1c35ea;}.cls-3{fill:#05f4c8;}</style></defs><g id="Layer_2" data-name="Layer 2"><g id="레이어_1" data-name="레이어 1"><path class="cls-1" d="M223.64,20.8A14.33,14.33,0,0,0,217.81,22V20.44h-8.62V59.57h8.62V35.25a5.83,5.83,0,0,1,10.56-3.41l7-5.05A14.49,14.49,0,0,0,223.64,20.8Z"/><rect class="cls-1" x="312.04" y="20.08" width="8.62" height="39.49"/><path class="cls-1" d="M316.34,6.8a5.38,5.38,0,1,0,5.38,5.38A5.38,5.38,0,0,0,316.34,6.8Z"/><path class="cls-1" d="M403.4,33.74l-6.65-6.65A19.84,19.84,0,1,0,397,52.34l3.72-3.72-.91-.91-5.18-5.18-4.06,4.06-2.13,2.13h0a11.21,11.21,0,1,1,.12-17.65l1.83,1.83,6.93,6.93,3.76,3.76,2.34,2.34,8.8,8.8,12.21,0L409.5,39.85Z"/><polygon class="cls-1" points="289.24 46.47 279.23 20.08 270.87 20.08 270.02 20.08 259.63 20.08 247.42 34.63 247.42 6.8 238.8 6.8 238.8 59.57 247.42 59.57 247.42 39.94 250.63 44.21 262.18 59.57 272.98 59.57 256.29 37.46 270.29 20.78 284.99 59.57 293.49 59.57 308.46 20.08 299.25 20.08 289.24 46.47"/><path class="cls-1" d="M343.27,28.16c3.14,0,5.81,1.77,6.08,3.95H358a12.31,12.31,0,0,0-4.6-9,16.32,16.32,0,0,0-20.22,0,12.28,12.28,0,0,0-4.61,9.41,11.24,11.24,0,0,0,2.6,7.21,15.18,15.18,0,0,0,11,5.14v0c2.81.08,5.83,1.29,5.83,2.9s-2.67,3.38-6.1,3.38-5.93-1.7-6.09-3.23h-8.62a11.16,11.16,0,0,0,4.8,8.75,17.47,17.47,0,0,0,19.84,0,11.15,11.15,0,0,0,4.8-8.9A10,10,0,0,0,354,41.11c-2.43-2.78-6.4-4.6-11.11-4.84v0c-2.88-.11-5.73-1.5-5.73-3.76S340,28.16,343.27,28.16Z"/><polygon class="cls-1" points="147.99 44.12 142.25 25.11 137.75 25.11 133.25 25.11 127.51 44.12 120.91 20.44 111.97 20.44 122.87 59.57 127.34 59.57 131.84 59.57 137.75 40.01 143.66 59.57 148.16 59.57 152.63 59.57 163.53 20.44 154.59 20.44 147.99 44.12"/><polygon class="cls-2" points="424.36 24.96 412.2 24.93 406.09 31.04 412.18 37.13 424.36 24.96"/><path class="cls-1" d="M185.67,20.14v-.05H169.29l-2.41,8.62h17.44a11.21,11.21,0,1,1-8.21,3.58H166a19.83,19.83,0,1,0,19.65-12.15Z"/><path class="cls-3" d="M38.08,38.07l32-32H90.86A6,6,0,0,1,95.1,16.33L55.72,55.71Z"/><path class="cls-2" d="M61.16,15,55.72,9.55A32.66,32.66,0,0,0,.49,38.41,31.47,31.47,0,0,0,5.66,51a32.69,32.69,0,0,0,50.06,4.67L38.08,38.07a7.69,7.69,0,1,1,0-10.88L70.49,59.6l20.91.13A6,6,0,0,0,95.68,49.5Z"/></g></g></svg>