<svg xmlns="http://www.w3.org/2000/svg" viewBox="0 0 268 157.58"><defs><style>.cls-1{fill:#1c35ea;}.cls-2{fill:#05f4c8;}</style></defs><g id="Layer_2" data-name="Layer 2"><g id="레이어_1" data-name="레이어 1"><path d="M95.78,124.17a12.28,12.28,0,0,0-5,1.06v-1.37H83.39v33.56h7.39V136.56a5,5,0,0,1,9.06-2.92l6-4.33A12.42,12.42,0,0,0,95.78,124.17Z"/><rect x="171.61" y="123.55" width="7.39" height="33.87"/><path d="M175.3,112.16a4.62,4.62,0,1,0,4.62,4.62A4.62,4.62,0,0,0,175.3,112.16Z"/><path d="M250,135.26l-5.71-5.71a17,17,0,1,0,.21,21.66l3.19-3.19-.78-.78-4.45-4.45L239,146.27l-1.83,1.83h0a9.62,9.62,0,1,1,.1-15.15l1.57,1.57,5.95,5.95L248,143.7l2,2,7.55,7.55,10.47,0-12.8-12.8Z"/><polygon points="152.06 146.19 143.47 123.55 136.3 123.55 135.57 123.55 126.65 123.55 116.18 136.03 116.18 112.16 108.79 112.16 108.79 157.42 116.18 157.42 116.18 140.58 118.94 144.25 128.85 157.42 138.1 157.42 123.79 138.46 135.8 124.15 148.41 157.42 155.7 157.42 168.54 123.55 160.64 123.55 152.06 146.19"/><path d="M198.4,130.48c2.69,0,5,1.52,5.21,3.39H211a10.55,10.55,0,0,0-3.95-7.76,14,14,0,0,0-17.34,0,10.54,10.54,0,0,0-3.95,8.07,9.65,9.65,0,0,0,2.23,6.18,13,13,0,0,0,9.4,4.41v0c2.41.07,5,1.11,5,2.48s-2.29,2.9-5.23,2.9-5.09-1.46-5.23-2.77h-7.4a9.61,9.61,0,0,0,4.11,7.51,15,15,0,0,0,17,0,9.55,9.55,0,0,0,4.12-7.64,8.56,8.56,0,0,0-2.19-5.7,13.42,13.42,0,0,0-9.53-4.15v0c-2.47-.1-4.91-1.29-4.91-3.23S195.56,130.48,198.4,130.48Z"/><polygon points="30.9 144.17 25.97 127.86 22.11 127.86 18.25 127.86 13.33 144.17 7.67 123.86 0 123.86 9.35 157.42 13.18 157.42 17.04 157.42 22.11 140.64 27.18 157.42 31.04 157.42 34.88 157.42 44.22 123.86 36.55 123.86 30.9 144.17"/><polygon class="cls-1" points="267.96 127.73 257.53 127.71 252.29 132.95 257.51 138.18 267.96 127.73"/><path d="M63.22,123.6v0h-14L47.1,131h15A9.65,9.65,0,1,1,55,134H46.37A17,17,0,1,0,63.22,123.6Z"/><path class="cls-2" d="M118,57.21l48-48h31.3a9,9,0,0,1,6.37,15.38L144.53,83.73Z"/><path class="cls-1" d="M152.7,22.52l-8.17-8.17a49.09,49.09,0,0,0-83,43.38,47.43,47.43,0,0,0,7.77,19,49.15,49.15,0,0,0,75.26,7L118,57.22a11.56,11.56,0,1,1,0-16.35l48.71,48.71,31.43.2A9,9,0,0,0,204.6,74.4Z"/></g></g></svg>