<svg xmlns="http://www.w3.org/2000/svg" viewBox="0 0 424.42 65.26"><defs><style>.cls-1{fill:#1c35ea}</style></defs><g id="Layer_2" data-name="Layer 2"><g id="레이어_1" data-name="레이어 1"><path d="M223.64 20.8a14.3 14.3 0 0 0-5.83 1.2v-1.56h-8.62v39.13h8.62V35.25a5.83 5.83 0 0 1 10.56-3.41l7-5.05a14.49 14.49 0 0 0-11.73-5.99M312.04 20.08h8.62v39.49h-8.62zM316.34 6.8a5.38 5.38 0 1 0 5.38 5.38 5.38 5.38 0 0 0-5.38-5.38M403.4 33.74l-6.65-6.65a19.84 19.84 0 1 0 .25 25.25l3.72-3.72-.91-.91-5.18-5.18-4.06 4.06-2.13 2.13a11.21 11.21 0 1 1 .12-17.65l1.83 1.83 6.93 6.93 3.76 3.76 2.34 2.33 8.8 8.8h12.21L409.5 39.84ZM289.24 46.47l-10.01-26.39h-19.6l-12.21 14.55V6.8h-8.62v52.77h8.62V39.94l3.21 4.27 11.55 15.36h10.8l-16.69-22.11 14-16.68 14.7 38.79h8.5l14.97-39.49h-9.21zM343.27 28.16c3.14 0 5.81 1.77 6.08 3.95H358a12.3 12.3 0 0 0-4.6-9 16.32 16.32 0 0 0-20.22 0 12.28 12.28 0 0 0-4.61 9.41 11.24 11.24 0 0 0 2.6 7.21 15.18 15.18 0 0 0 11 5.14c2.81.08 5.83 1.29 5.83 2.9s-2.67 3.38-6.1 3.38-5.93-1.7-6.09-3.23h-8.62a11.16 11.16 0 0 0 4.8 8.75 17.47 17.47 0 0 0 19.84 0 11.15 11.15 0 0 0 4.8-8.9 10 10 0 0 0-2.63-6.66c-2.43-2.78-6.4-4.6-11.11-4.84-2.88-.11-5.73-1.5-5.73-3.76s2.84-4.35 6.11-4.35M147.99 44.12l-5.74-19.01h-9l-5.74 19.01-6.6-23.68h-8.94l10.9 39.13h8.969999999999999l5.91-19.56 5.91 19.56h8.969999999999999l10.9-39.13h-8.94z"/><path d="m424.36 24.96-12.16-.03-6.11 6.11 6.09 6.09z" class="cls-1"/><path d="M185.67 20.14v-.05h-16.38l-2.41 8.62h17.44a11.21 11.21 0 1 1-8.21 3.58H166a19.83 19.83 0 1 0 19.65-12.15Z"/><path d="m38.08 38.07 32-32h20.78a6 6 0 0 1 4.24 10.26L55.72 55.71Z" style="fill:#05f4c8"/><path d="m61.16 15-5.44-5.45A32.66 32.66 0 0 0 .49 38.41 31.5 31.5 0 0 0 5.66 51a32.69 32.69 0 0 0 50.06 4.67l-17.64-17.6a7.69 7.69 0 1 1 0-10.88L70.49 59.6l20.91.13a6 6 0 0 0 4.28-10.23Z" class="cls-1"/></g></g></svg>