<svg xmlns="http://www.w3.org/2000/svg" width="32" height="32" viewBox="0 0 32 32" fill="none">
  <mask id="mask0_36_12571" style="mask-type:alpha" maskUnits="userSpaceOnUse" x="0" y="0" width="32" height="32">
    <rect width="32" height="32" fill="#D9D9D9"/>
  </mask>
  <g mask="url(#mask0_36_12571)">
    <path d="M28.0013 27.4667C27.8235 27.4667 27.6569 27.4334 27.5013 27.3667C27.3457 27.3001 27.2013 27.2001 27.068 27.0668L24.0013 24.0001H10.668C9.93464 24.0001 9.30686 23.739 8.78464 23.2167C8.26241 22.6945 8.0013 22.0667 8.0013 21.3334V20.0001H22.668C23.4013 20.0001 24.0291 19.739 24.5513 19.2167C25.0735 18.6945 25.3346 18.0667 25.3346 17.3334V8.00008H26.668C27.4013 8.00008 28.0291 8.26119 28.5513 8.78342C29.0735 9.30564 29.3346 9.93341 29.3346 10.6667V26.1001C29.3346 26.5001 29.2013 26.8279 28.9346 27.0834C28.668 27.339 28.3569 27.4667 28.0013 27.4667ZM5.33464 16.2334L6.9013 14.6667H20.0013V5.33341H5.33464V16.2334ZM4.0013 20.8001C3.64575 20.8001 3.33464 20.6723 3.06797 20.4167C2.8013 20.1612 2.66797 19.8334 2.66797 19.4334V5.33341C2.66797 4.60008 2.92908 3.9723 3.4513 3.45008C3.97352 2.92786 4.6013 2.66675 5.33464 2.66675H20.0013C20.7346 2.66675 21.3624 2.92786 21.8846 3.45008C22.4069 3.9723 22.668 4.60008 22.668 5.33341V14.6667C22.668 15.4001 22.4069 16.0279 21.8846 16.5501C21.3624 17.0723 20.7346 17.3334 20.0013 17.3334H8.0013L4.93464 20.4001C4.8013 20.5334 4.65686 20.6334 4.5013 20.7001C4.34575 20.7667 4.17908 20.8001 4.0013 20.8001Z" fill="#1C35EA"/>
  </g>
</svg>