<svg width="24" height="25" viewBox="0 0 24 25" fill="none" xmlns="http://www.w3.org/2000/svg">
<g id="img">
<path id="Vector" d="M13.5 9.5C12.6716 9.5 12 8.82843 12 8C12 7.17157 12.6716 6.5 13.5 6.5C14.3284 6.5 15 7.17157 15 8C14.9991 8.82805 14.3281 9.4991 13.5 9.5Z" fill="#B3B5BD"/>
<path id="Vector_2" d="M19 2.5H5C3.34515 2.50483 2.00483 3.84515 2 5.5V14.36L5.88 10.48C7.06747 9.35 8.93253 9.35 10.12 10.48L12.9914 13.367L13.8789 12.4795C15.0524 11.3129 16.9476 11.3129 18.1211 12.4795L22 16.3584V5.5C21.9952 3.84515 20.6549 2.50483 19 2.5ZM13.5 9.5C12.6716 9.5 12 8.82843 12 8C12 7.17157 12.6716 6.5 13.5 6.5C14.3284 6.5 15 7.17157 15 8C14.9991 8.82805 14.328 9.4991 13.5 9.5Z" fill="#F3F4F8"/>
<path id="Vector_3" d="M10.12 10.4803C8.93253 9.35031 7.06747 9.35031 5.88 10.4803L2 14.3603V19.5003C2.00484 21.1552 3.34516 22.4955 5 22.5003H19C19.8151 22.5 20.595 22.1678 21.16 21.5803L10.12 10.4803Z" fill="#9496A1"/>
<path id="Vector_4" d="M22.0008 16.3593L18.1219 12.4804C16.9484 11.3138 15.0532 11.3138 13.8797 12.4804L12.9922 13.3679L21.1564 21.5765C21.6986 21.0217 22.0017 20.2766 22.0008 19.5009V16.3593Z" fill="#B3B5BD"/>
</g>
</svg>
