<svg width="640" height="181" viewBox="0 0 640 181" fill="none" xmlns="http://www.w3.org/2000/svg">
<g filter="url(#filter0_d_1_6702)">
<rect x="56.9683" y="10.5996" width="569" height="156" rx="24" fill="white"/>
<path d="M122.636 74.5996V54.8027H129.691C131.669 54.8027 133.378 55.1992 134.818 55.9922C136.258 56.776 137.361 57.9108 138.126 59.3965C138.901 60.8822 139.289 62.6413 139.289 64.6738C139.289 66.7246 138.901 68.4974 138.126 69.9922C137.352 71.4779 136.24 72.6172 134.791 73.4102C133.341 74.2031 131.614 74.5996 129.609 74.5996H122.636ZM129.445 71.0723C131.359 71.0723 132.794 70.5527 133.751 69.5137C134.708 68.4746 135.187 66.8613 135.187 64.6738C135.187 62.5046 134.708 60.9049 133.751 59.875C132.804 58.8451 131.377 58.3301 129.472 58.3301H126.738V71.0723H129.445ZM142.187 59.752H146.234V74.5996H142.187V59.752ZM144.21 57.8105C143.809 57.8105 143.436 57.7194 143.089 57.5371C142.752 57.3457 142.483 57.0951 142.283 56.7852C142.091 56.4661 141.996 56.1243 141.996 55.7598C141.996 55.3861 142.091 55.0397 142.283 54.7207C142.483 54.4017 142.752 54.151 143.089 53.9688C143.436 53.7773 143.809 53.6816 144.21 53.6816C144.602 53.6816 144.967 53.7773 145.304 53.9688C145.641 54.151 145.906 54.4017 146.097 54.7207C146.298 55.0397 146.398 55.3861 146.398 55.7598C146.398 56.1243 146.298 56.4661 146.097 56.7852C145.906 57.0951 145.641 57.3457 145.304 57.5371C144.967 57.7194 144.602 57.8105 144.21 57.8105ZM149.378 59.752H153.289V62.3223H153.453C153.717 61.4199 154.168 60.7318 154.806 60.2578C155.444 59.7747 156.187 59.5332 157.035 59.5332C157.5 59.5332 157.928 59.5788 158.32 59.6699V63.2793C158.119 63.2246 157.85 63.1745 157.513 63.1289C157.176 63.0833 156.871 63.0605 156.597 63.0605C155.996 63.0605 155.453 63.1927 154.97 63.457C154.487 63.7214 154.109 64.0905 153.835 64.5645C153.562 65.0293 153.425 65.5579 153.425 66.1504V74.5996H149.378V59.752ZM166.55 74.9004C165.046 74.9004 163.743 74.5905 162.64 73.9707C161.546 73.3509 160.703 72.4668 160.111 71.3184C159.518 70.1608 159.222 68.8027 159.222 67.2441C159.222 65.722 159.514 64.3822 160.097 63.2246C160.69 62.0579 161.528 61.1556 162.613 60.5176C163.697 59.8796 164.955 59.5605 166.386 59.5605C167.717 59.5605 168.906 59.8431 169.955 60.4082C171.012 60.9642 171.841 61.8073 172.443 62.9375C173.054 64.0677 173.359 65.4486 173.359 67.0801V68.2285H163.214C163.214 68.9668 163.351 69.6094 163.625 70.1562C163.907 70.7031 164.304 71.127 164.814 71.4277C165.333 71.7194 165.94 71.8652 166.632 71.8652C167.298 71.8652 167.872 71.7331 168.355 71.4688C168.838 71.1953 169.184 70.8262 169.394 70.3613H173.25C173.058 71.2728 172.666 72.0703 172.074 72.7539C171.481 73.4375 170.711 73.9661 169.763 74.3398C168.824 74.7135 167.753 74.9004 166.55 74.9004ZM169.531 65.6855C169.531 65.0931 169.399 64.5645 169.134 64.0996C168.879 63.6257 168.519 63.2565 168.054 62.9922C167.589 62.7279 167.061 62.5957 166.468 62.5957C165.867 62.5957 165.32 62.7324 164.828 63.0059C164.345 63.2793 163.957 63.653 163.666 64.127C163.383 64.6009 163.233 65.1204 163.214 65.6855H169.531ZM182.574 74.9004C181.088 74.9004 179.794 74.5768 178.691 73.9297C177.597 73.2826 176.759 72.3802 176.175 71.2227C175.592 70.0651 175.3 68.7298 175.3 67.2168C175.3 65.7038 175.592 64.373 176.175 63.2246C176.768 62.0671 177.611 61.1693 178.705 60.5312C179.807 59.8841 181.097 59.5605 182.574 59.5605C183.841 59.5605 184.962 59.793 185.937 60.2578C186.912 60.7227 187.678 61.3835 188.234 62.2402C188.799 63.0879 189.109 64.0723 189.164 65.1934H185.363C185.235 64.4368 184.934 63.8353 184.46 63.3887C183.986 62.9329 183.376 62.7051 182.628 62.7051C181.981 62.7051 181.412 62.8828 180.919 63.2383C180.436 63.5846 180.063 64.0951 179.798 64.7695C179.534 65.444 179.402 66.2415 179.402 67.1621C179.402 68.11 179.534 68.9212 179.798 69.5957C180.063 70.2702 180.436 70.7852 180.919 71.1406C181.403 71.4961 181.972 71.6738 182.628 71.6738C183.348 71.6738 183.955 71.4596 184.447 71.0312C184.939 70.6029 185.244 69.9967 185.363 69.2129H189.164C189.1 70.334 188.794 71.3229 188.248 72.1797C187.701 73.0365 186.94 73.7064 185.964 74.1895C184.998 74.6634 183.868 74.9004 182.574 74.9004ZM199.5 62.7871H196.71V70.0332C196.71 70.5801 196.829 70.9629 197.066 71.1816C197.303 71.4004 197.649 71.5189 198.105 71.5371C198.688 71.5371 199.226 71.5098 199.718 71.4551V74.6543C199.235 74.7454 198.515 74.791 197.558 74.791C196.036 74.791 194.837 74.4401 193.962 73.7383C193.087 73.0365 192.654 71.9928 192.664 70.6074V62.7871H190.613V59.752H192.664V56.1973H196.71V59.752H199.5V62.7871ZM208.55 74.9004C207.074 74.9004 205.789 74.5814 204.695 73.9434C203.601 73.3053 202.758 72.4076 202.166 71.25C201.573 70.0833 201.277 68.7389 201.277 67.2168C201.277 65.6947 201.569 64.3548 202.152 63.1973C202.744 62.0397 203.587 61.1465 204.681 60.5176C205.784 59.8796 207.074 59.5605 208.55 59.5605C210.027 59.5605 211.317 59.8796 212.419 60.5176C213.522 61.1465 214.37 62.0397 214.962 63.1973C215.555 64.3548 215.851 65.6947 215.851 67.2168C215.851 68.7389 215.555 70.0833 214.962 71.25C214.37 72.4076 213.522 73.3053 212.419 73.9434C211.317 74.5814 210.027 74.9004 208.55 74.9004ZM208.578 71.7559C209.252 71.7559 209.826 71.5645 210.3 71.1816C210.774 70.7897 211.13 70.252 211.367 69.5684C211.604 68.8848 211.722 68.1009 211.722 67.2168C211.722 66.3327 211.604 65.5488 211.367 64.8652C211.13 64.1725 210.774 63.6302 210.3 63.2383C209.826 62.8464 209.252 62.6504 208.578 62.6504C207.894 62.6504 207.311 62.8464 206.828 63.2383C206.354 63.6302 205.994 64.1725 205.748 64.8652C205.501 65.5488 205.378 66.3327 205.378 67.2168C205.378 68.0918 205.501 68.8757 205.748 69.5684C205.994 70.252 206.354 70.7897 206.828 71.1816C207.311 71.5645 207.894 71.7559 208.578 71.7559ZM218.394 59.752H222.304V62.3223H222.468C222.733 61.4199 223.184 60.7318 223.822 60.2578C224.46 59.7747 225.203 59.5332 226.05 59.5332C226.515 59.5332 226.944 59.5788 227.335 59.6699V63.2793C227.135 63.2246 226.866 63.1745 226.529 63.1289C226.192 63.0833 225.886 63.0605 225.613 63.0605C225.011 63.0605 224.469 63.1927 223.986 63.457C223.503 63.7214 223.125 64.0905 222.851 64.5645C222.578 65.0293 222.441 65.5579 222.441 66.1504V74.5996H218.394V59.752Z" fill="#101223"/>
<path d="M144.99 97.362V125.185H142.537V97.362H144.99ZM123.134 109.185C123.134 103.285 126.073 99.5278 130.228 99.5057C134.338 99.5278 137.322 103.285 137.322 109.185C137.322 115.108 134.338 118.865 130.228 118.865C126.073 118.865 123.134 115.108 123.134 109.185ZM125.499 109.185C125.499 113.716 127.443 116.677 130.228 116.677C133.012 116.677 134.935 113.716 134.935 109.185C134.935 104.677 133.012 101.716 130.228 101.694C127.443 101.716 125.499 104.677 125.499 109.185ZM162.923 99.0637V106.865H153.376V111.174C158.591 111.174 161.299 111.064 164.558 110.467L164.801 112.5C161.354 113.075 158.525 113.163 152.912 113.163H150.945V104.964H160.492V101.053H150.879V99.0637H162.923ZM154.061 117.959V115.948H172.779V125.185H170.326V117.959H154.061ZM164.779 109.274V107.263H170.326V103.506H164.779V101.517H170.326V97.3841H172.779V114.445H170.326V109.274H164.779ZM187.176 104.832C187.176 109.848 190.402 114.909 194.447 116.765L192.966 118.754C189.806 117.13 187.198 113.804 185.96 109.859C184.734 114.014 182.126 117.572 178.955 119.263L177.386 117.296C181.452 115.285 184.679 109.937 184.701 104.832V99.7709H187.176V104.832ZM191.419 108.854V106.843H198.005V97.362H200.435V125.185H198.005V108.854H191.419ZM226.567 97.362V108.655H231.075V110.732H226.567V125.119H224.114V97.362H226.567ZM205.241 117.915C212.423 114.345 216.335 108.997 216.887 102.401H206.545V100.345H219.385C219.362 108.213 215.672 115.373 206.611 119.837L205.241 117.915ZM266.1 110.578V112.633H240.752V110.578H266.1ZM243.801 120.08C243.801 116.876 247.404 115.064 253.392 115.064C259.359 115.064 262.939 116.876 262.962 120.08C262.939 123.285 259.359 125.075 253.392 125.075C247.404 125.075 243.801 123.285 243.801 120.08ZM243.956 107.926V98.4891H262.939V100.522H246.387V105.915H263.116V107.926H243.956ZM246.299 120.08C246.276 122.025 248.95 123.13 253.392 123.13C257.812 123.13 260.486 122.025 260.508 120.08C260.486 118.136 257.812 117.008 253.392 116.986C248.95 117.008 246.276 118.136 246.299 120.08ZM293.8 112.655V114.688H268.364V112.655H279.877V109.716H271.679V102.931H288.076V100.058H271.59V98.0692H290.529V104.787H274.109V107.749H291.126V109.716H282.286V112.655H293.8ZM271.214 118.821V116.81H290.684V124.876H288.209V118.821H271.214ZM312.617 109.362V111.395H306.539V116.854C309.257 116.732 311.987 116.555 314.561 116.257L314.76 118.091C308.594 118.997 301.876 119.108 296.55 119.108L296.219 117.031C298.639 117.031 301.324 117.008 304.086 116.931V111.395H298.34V100.014H312.506V102.003H300.749V109.362H312.617ZM316.396 125.185V97.362H318.849V125.185H316.396ZM333.289 115.97C333.267 118.467 334.593 121.086 337.245 122.611C339.908 120.942 341.267 118.124 341.289 115.97V114.29H343.676V115.97C343.676 118.843 345.753 121.738 349.378 122.931L348.096 124.787C345.334 123.782 343.4 121.837 342.45 119.495C341.577 121.76 339.886 123.903 337.289 125.008C334.626 123.981 332.903 121.937 332.063 119.594C331.068 121.826 329.157 123.771 326.505 124.787L325.289 122.931C328.803 121.671 330.903 118.666 330.925 115.97V114.29H333.289V115.97ZM324.184 105.45C324.184 101.627 327.212 98.9311 331.367 98.9532C335.024 98.9311 337.886 101.119 338.428 104.345H344.295V97.362H346.748V113.229H344.295V106.379H338.461C337.986 109.705 335.09 111.948 331.367 111.948C327.212 111.948 324.184 109.274 324.184 105.45ZM326.549 105.45C326.527 108.014 328.582 109.892 331.367 109.915C334.107 109.892 336.162 108.014 336.162 105.45C336.162 102.865 334.107 101.008 331.367 101.031C328.582 101.008 326.527 102.865 326.549 105.45ZM357.034 114.025V117.274H370.912V114.025H373.388V124.765H354.603V114.025H357.034ZM351.377 112.08V110.025H376.703V112.08H351.377ZM352.813 106.113C357.763 105.428 362.78 102.511 362.78 98.9753V97.6714H365.299V98.9753C365.299 102.401 370.36 105.473 375.244 106.113L374.338 108.058C370.04 107.417 365.808 105.218 364.051 102.124C362.283 105.252 358.029 107.417 353.741 108.058L352.813 106.113ZM357.034 122.776H370.912V119.218H357.034V122.776ZM401.928 97.362V125.141H399.497V97.362H401.928ZM380.845 117.981V100.102H383.254V115.837C387.497 115.826 391.862 115.495 396.536 114.511L396.867 116.611C391.939 117.627 387.541 117.981 383.099 117.981H380.845ZM428.192 97.362V108.345H432.833V110.401H428.192V125.185H425.739V97.362H428.192ZM407.905 118.224V100.08H420.877V102.091H410.358V116.147C415.385 116.136 418.943 115.937 423.065 115.174L423.374 117.296C419.021 118.069 415.374 118.224 410.092 118.224H407.905ZM437.285 122.776C436.18 122.776 435.251 121.87 435.274 120.765C435.251 119.66 436.18 118.754 437.285 118.754C438.39 118.754 439.296 119.66 439.296 120.765C439.296 121.87 438.39 122.776 437.285 122.776Z" fill="#101223"/>
<path d="M513.095 122.832C510.029 122.832 507.709 120.942 507.576 118.34H509.631C509.78 119.848 511.256 120.975 513.095 120.975C515.3 120.975 516.891 119.368 516.891 117.229C516.891 115.025 515.233 113.401 512.946 113.384C511.521 113.368 510.41 113.815 509.78 114.909H507.742L508.935 105.627H518.134V107.5H510.692L510.062 112.473H510.245C510.99 111.892 512.134 111.495 513.327 111.495C516.559 111.495 518.946 113.881 518.946 117.18C518.946 120.461 516.477 122.832 513.095 122.832ZM540.178 114.694V116.202H531.692V120.279H529.869V116.202H521.101V114.694H540.178ZM523.554 124.042V118.357H525.377V122.517H538.057V124.042H523.554ZM523.653 112.655V104.334H525.493V107.019H535.802V104.334H537.642V112.655H523.653ZM525.493 111.163H535.802V108.428H525.493V111.163ZM559.147 103.688V118.97H557.307V110.964H553.014V109.456H557.307V103.688H559.147ZM541.959 114.793C545.042 113.716 547.263 110.964 547.263 107.981V106.903H542.556V105.379H553.777V106.903H549.119V107.981C549.119 110.666 551.208 113.285 554.257 114.329L553.296 115.804C550.942 114.959 549.127 113.21 548.224 111.055C547.321 113.459 545.398 115.373 542.92 116.301L541.959 114.793ZM545.771 124.042V117.594H547.611V122.517H559.727V124.042H545.771Z" fill="#B3B5BD"/>
<path d="M12.1621 84.0164L57.9996 68.0741L57.9996 106L12.1621 90.0577C9.27879 89.0556 9.27879 85.0185 12.1621 84.0164Z" fill="white"/>
</g>
<defs>
<filter id="filter0_d_1_6702" x="-0.000366211" y="0.5" width="640" height="181" filterUnits="userSpaceOnUse" color-interpolation-filters="sRGB">
<feFlood flood-opacity="0" result="BackgroundImageFix"/>
<feColorMatrix in="SourceAlpha" type="matrix" values="0 0 0 0 0 0 0 0 0 0 0 0 0 0 0 0 0 0 127 0" result="hardAlpha"/>
<feOffset dx="2" dy="2"/>
<feGaussianBlur stdDeviation="6"/>
<feComposite in2="hardAlpha" operator="out"/>
<feColorMatrix type="matrix" values="0 0 0 0 0 0 0 0 0 0.0705882 0 0 0 0 0.588235 0 0 0 0.08 0"/>
<feBlend mode="normal" in2="BackgroundImageFix" result="effect1_dropShadow_1_6702"/>
<feBlend mode="normal" in="SourceGraphic" in2="effect1_dropShadow_1_6702" result="shape"/>
</filter>
</defs>
</svg>
