<svg width="120" height="120" viewBox="0 0 120 120" fill="none" xmlns="http://www.w3.org/2000/svg">
<path d="M69.375 65.625L102.338 81.3206C104.257 82.2348 105.878 83.674 107.013 85.4716C108.148 87.2692 108.75 89.3516 108.75 91.4775V116.25H11.25V91.4775C11.25 89.3516 11.8523 87.2692 12.9872 85.4716C14.1222 83.674 15.7432 82.2348 17.6625 81.3206L50.625 65.625L60 73.125L69.375 65.625Z" fill="#474747"/>
<path d="M102.336 81.3206L69.3739 65.625L59.9989 73.125L50.6239 65.625L17.6614 81.3206C16.7027 81.7786 15.8134 82.3694 15.0195 83.0756C19.6663 92.9927 27.043 101.38 36.2853 107.256C45.5276 113.131 56.2528 116.251 67.2045 116.25H108.749V91.4775C108.749 89.3516 108.147 87.2692 107.012 85.4716C105.877 83.674 104.256 82.2348 102.336 81.3206Z" fill="#545454"/>
<path d="M37.5 31.875V13.125C37.5 10.6386 38.4877 8.25403 40.2459 6.49587C42.004 4.73772 44.3886 3.75 46.875 3.75H73.125C75.6114 3.75 77.996 4.73772 79.7541 6.49587C81.5123 8.25403 82.5 10.6386 82.5 13.125V31.875H37.5Z" fill="#686868"/>
<path d="M76.875 30H80.625C82.1168 30 83.5476 30.5926 84.6025 31.6475C85.6574 32.7024 86.25 34.1332 86.25 35.625C86.25 37.1168 85.6574 38.5476 84.6025 39.6025C83.5476 40.6574 82.1168 41.25 80.625 41.25H76.875" fill="#F2B9A1"/>
<path d="M43.125 30H39.375C37.8832 30 36.4524 30.5926 35.3975 31.6475C34.3426 32.7024 33.75 34.1332 33.75 35.625C33.75 37.1168 34.3426 38.5476 35.3975 39.6025C36.4524 40.6574 37.8832 41.25 39.375 41.25H43.125" fill="#F2B9A1"/>
<path d="M82.5 71.8725C82.4043 78.7531 80.7319 85.5201 77.6114 91.6531C74.491 97.7862 70.0055 103.122 64.5 107.25L60 110.625L55.5 107.25C49.9945 103.122 45.509 97.7862 42.3886 91.6531C39.2681 85.5201 37.5957 78.7531 37.5 71.8725L50.625 65.625V60H69.375V65.625L82.5 71.8725Z" fill="#F2F2F2"/>
<path d="M69.375 65.625L60 73.125L50.625 65.625V56.25H69.375V65.625Z" fill="#F2B9A1"/>
<path d="M63.7498 90L67.4567 104.829C66.5105 105.673 65.5248 106.48 64.4998 107.25L59.9998 110.625L55.4998 107.25C54.4761 106.481 53.4905 105.674 52.543 104.829L56.2498 90H63.7498Z" fill="#3279EA"/>
<path d="M69.2848 78.9281L63.7498 90H56.2498L50.7148 78.9281L59.9998 73.125L69.2848 78.9281Z" fill="#2458AD"/>
<path d="M59.9995 73.125L44.9995 82.5L37.8164 71.7244L50.6245 65.625L59.9995 73.125Z" fill="#95EBFC"/>
<path d="M60 73.125L75 82.5L82.1831 71.7244L69.375 65.625L60 73.125Z" fill="#95EBFC"/>
<path d="M63.7514 90H56.2514L54.0352 98.8669C56.6556 102.52 60.1109 105.493 64.1133 107.541L64.5014 107.25C65.5252 106.481 66.5108 105.674 67.4583 104.829L63.7514 90Z" fill="#408AF4"/>
<path d="M52.457 77.8406C53.6013 80.3726 55.2448 82.6476 57.289 84.5294C59.3332 86.4112 61.7361 87.8612 64.3539 88.7925L69.2852 78.9281L60.0002 73.125L52.457 77.8406Z" fill="#2862BE"/>
<path d="M78.75 26.25V35.8125C78.7497 44.0956 75.459 52.0394 69.6019 57.8963C68.3411 59.1575 66.8442 60.158 65.1967 60.8407C63.5492 61.5234 61.7833 61.8748 60 61.875C58.2168 61.8751 56.451 61.5239 54.8035 60.8415C53.156 60.1592 51.6591 59.159 50.3981 57.8981C47.4977 54.9979 45.197 51.5547 43.6274 47.7652C42.0577 43.9757 41.2499 39.9142 41.25 35.8125V26.25H51.2681C58.0595 26.2498 64.5726 23.552 69.375 18.75L78.75 26.25Z" fill="#FBE1CA"/>
</svg>
