<svg width="32" height="32" viewBox="0 0 32 32" fill="none" xmlns="http://www.w3.org/2000/svg">
<mask id="mask0_169_2587" style="mask-type:alpha" maskUnits="userSpaceOnUse" x="0" y="0" width="32" height="32">
<rect width="32" height="32" fill="#D9D9D9"/>
</mask>
<g mask="url(#mask0_169_2587)">
<path d="M14.4667 18.3332L14.6 19.3998C14.6222 19.5776 14.6944 19.7221 14.8167 19.8332C14.9389 19.9443 15.0889 19.9998 15.2667 19.9998H16.7333C16.9111 19.9998 17.0611 19.9443 17.1833 19.8332C17.3056 19.7221 17.3778 19.5776 17.4 19.3998L17.5333 18.3332C17.7111 18.2665 17.8722 18.1887 18.0167 18.0998C18.1611 18.0109 18.2889 17.9109 18.4 17.7998L19.4 18.2332C19.5556 18.2998 19.7111 18.3109 19.8667 18.2665C20.0222 18.2221 20.1444 18.1221 20.2333 17.9665L20.9667 16.6998C21.0556 16.5443 21.0833 16.3887 21.05 16.2332C21.0167 16.0776 20.9333 15.9443 20.8 15.8332L19.9333 15.1998C19.9778 15.0221 20 14.8443 20 14.6665C20 14.4887 19.9778 14.3109 19.9333 14.1332L20.8 13.4998C20.9333 13.3887 21.0167 13.2554 21.05 13.0998C21.0833 12.9443 21.0556 12.7887 20.9667 12.6332L20.2333 11.3665C20.1444 11.2109 20.0222 11.1109 19.8667 11.0665C19.7111 11.0221 19.5556 11.0332 19.4 11.0998L18.4 11.5332C18.2889 11.4221 18.1611 11.3221 18.0167 11.2332C17.8722 11.1443 17.7111 11.0665 17.5333 10.9998L17.4 9.93317C17.3778 9.75539 17.3056 9.61095 17.1833 9.49984C17.0611 9.38873 16.9111 9.33317 16.7333 9.33317H15.2667C15.0889 9.33317 14.9389 9.38873 14.8167 9.49984C14.6944 9.61095 14.6222 9.75539 14.6 9.93317L14.4667 10.9998C14.2889 11.0665 14.1278 11.1443 13.9833 11.2332C13.8389 11.3221 13.7111 11.4221 13.6 11.5332L12.6 11.0998C12.4444 11.0332 12.2889 11.0221 12.1333 11.0665C11.9778 11.1109 11.8556 11.2109 11.7667 11.3665L11.0333 12.6332C10.9444 12.7887 10.9167 12.9443 10.95 13.0998C10.9833 13.2554 11.0667 13.3887 11.2 13.4998L12.0667 14.1332C12.0222 14.3109 12 14.4887 12 14.6665C12 14.8443 12.0222 15.0221 12.0667 15.1998L11.2 15.8332C11.0667 15.9443 10.9833 16.0776 10.95 16.2332C10.9167 16.3887 10.9444 16.5443 11.0333 16.6998L11.7667 17.9665C11.8556 18.1221 11.9778 18.2221 12.1333 18.2665C12.2889 18.3109 12.4444 18.2998 12.6 18.2332L13.6 17.7998C13.7111 17.9109 13.8389 18.0109 13.9833 18.0998C14.1278 18.1887 14.2889 18.2665 14.4667 18.3332ZM16 16.6665C15.4444 16.6665 14.9722 16.4721 14.5833 16.0832C14.1944 15.6943 14 15.2221 14 14.6665C14 14.1109 14.1944 13.6387 14.5833 13.2498C14.9722 12.8609 15.4444 12.6665 16 12.6665C16.5556 12.6665 17.0278 12.8609 17.4167 13.2498C17.8056 13.6387 18 14.1109 18 14.6665C18 15.2221 17.8056 15.6943 17.4167 16.0832C17.0278 16.4721 16.5556 16.6665 16 16.6665ZM8 23.5998C6.73333 22.4443 5.75 21.0943 5.05 19.5498C4.35 18.0054 4 16.3776 4 14.6665C4 11.3332 5.16667 8.49984 7.5 6.1665C9.83333 3.83317 12.6667 2.6665 16 2.6665C18.7778 2.6665 21.2389 3.48317 23.3833 5.1165C25.5278 6.74984 26.9222 8.87761 27.5667 11.4998L29.3 18.3332C29.4111 18.7554 29.3333 19.1387 29.0667 19.4832C28.8 19.8276 28.4444 19.9998 28 19.9998H25.3333V23.9998C25.3333 24.7332 25.0722 25.3609 24.55 25.8832C24.0278 26.4054 23.4 26.6665 22.6667 26.6665H20V27.9998C20 28.3776 19.8722 28.6943 19.6167 28.9498C19.3611 29.2054 19.0444 29.3332 18.6667 29.3332C18.2889 29.3332 17.9722 29.2054 17.7167 28.9498C17.4611 28.6943 17.3333 28.3776 17.3333 27.9998V25.3332C17.3333 24.9554 17.4611 24.6387 17.7167 24.3832C17.9722 24.1276 18.2889 23.9998 18.6667 23.9998H22.6667V18.6665C22.6667 18.2887 22.7944 17.9721 23.05 17.7165C23.3056 17.4609 23.6222 17.3332 24 17.3332H26.2667L25 12.1665C24.4889 10.1443 23.4 8.49984 21.7333 7.23317C20.0667 5.9665 18.1556 5.33317 16 5.33317C13.4222 5.33317 11.2222 6.23317 9.4 8.03317C7.57778 9.83317 6.66667 12.0221 6.66667 14.5998C6.66667 15.9332 6.93889 17.1998 7.48333 18.3998C8.02778 19.5998 8.8 20.6665 9.8 21.5998L10.6667 22.3998V27.9998C10.6667 28.3776 10.5389 28.6943 10.2833 28.9498C10.0278 29.2054 9.71111 29.3332 9.33333 29.3332C8.95556 29.3332 8.63889 29.2054 8.38333 28.9498C8.12778 28.6943 8 28.3776 8 27.9998V23.5998Z" fill="#D2D4DA"/>
</g>
</svg>
