<svg width="20" height="20" viewBox="0 0 20 20" fill="none" xmlns="http://www.w3.org/2000/svg">
<g id="Rounded 400">
<mask id="mask0_76_10901" style="mask-type:alpha" maskUnits="userSpaceOnUse" x="0" y="0" width="20" height="20">
<rect id="Bounding box" width="20" height="20" fill="#D9D9D9"/>
</mask>
<g mask="url(#mask0_76_10901)">
<path id="restart_alt" d="M8.1862 17.25C6.75564 16.8472 5.58898 16.059 4.6862 14.8854C3.78342 13.7118 3.33203 12.3611 3.33203 10.8333C3.33203 10.0417 3.46398 9.2882 3.72786 8.57292C3.99175 7.85764 4.36675 7.20139 4.85286 6.60417C5.00564 6.4375 5.19314 6.3507 5.41536 6.34375C5.63759 6.33681 5.83898 6.42361 6.01953 6.60417C6.17231 6.75695 6.25217 6.94445 6.25911 7.16667C6.26606 7.38889 6.19314 7.59722 6.04036 7.79167C5.70703 8.22222 5.45009 8.69445 5.26953 9.20833C5.08898 9.72222 4.9987 10.2639 4.9987 10.8333C4.9987 11.9583 5.32856 12.9618 5.98828 13.8438C6.648 14.7257 7.4987 15.3264 8.54036 15.6458C8.72092 15.7014 8.87023 15.8056 8.98828 15.9583C9.10634 16.1111 9.16536 16.2778 9.16536 16.4583C9.16536 16.7361 9.06814 16.9549 8.8737 17.1146C8.67925 17.2743 8.45009 17.3194 8.1862 17.25ZM11.8112 17.25C11.5473 17.3194 11.3181 17.2708 11.1237 17.1042C10.9293 16.9375 10.832 16.7153 10.832 16.4375C10.832 16.2708 10.8911 16.1111 11.0091 15.9583C11.1272 15.8056 11.2765 15.7014 11.457 15.6458C12.4987 15.3125 13.3494 14.7083 14.0091 13.8333C14.6688 12.9583 14.9987 11.9583 14.9987 10.8333C14.9987 9.44445 14.5126 8.26389 13.5404 7.29167C12.5681 6.31944 11.3876 5.83333 9.9987 5.83333H9.9362L10.2695 6.16667C10.4223 6.31944 10.4987 6.51389 10.4987 6.75C10.4987 6.98611 10.4223 7.18056 10.2695 7.33333C10.1168 7.48611 9.92231 7.5625 9.6862 7.5625C9.45009 7.5625 9.25564 7.48611 9.10286 7.33333L7.35286 5.58333C7.26953 5.5 7.2105 5.40972 7.17578 5.3125C7.14106 5.21528 7.1237 5.11111 7.1237 5C7.1237 4.88889 7.14106 4.78472 7.17578 4.6875C7.2105 4.59028 7.26953 4.5 7.35286 4.41667L9.10286 2.66667C9.25564 2.51389 9.45009 2.4375 9.6862 2.4375C9.92231 2.4375 10.1168 2.51389 10.2695 2.66667C10.4223 2.81944 10.4987 3.01389 10.4987 3.25C10.4987 3.48611 10.4223 3.68056 10.2695 3.83333L9.9362 4.16667H9.9987C11.8598 4.16667 13.4362 4.8125 14.7279 6.10417C16.0195 7.39583 16.6654 8.97222 16.6654 10.8333C16.6654 12.3472 16.214 13.6944 15.3112 14.875C14.4084 16.0556 13.2418 16.8472 11.8112 17.25Z" fill="#B3B5BD"/>
</g>
</g>
</svg>
