<svg width="1041" height="1041" viewBox="0 0 1041 1041" fill="none" xmlns="http://www.w3.org/2000/svg">
<circle cx="520.5" cy="520.5" r="470.3" stroke="#BFC5FF" stroke-width="0.4"/>
<circle cx="520.5" cy="520.5" r="385" stroke="#BFC5FF"/>
<circle cx="520.5" cy="520.5" r="520.4" stroke="#BFC5FF" stroke-width="0.2"/>
<g filter="url(#filter0_d_31_646)">
<rect x="701" y="101" width="160" height="160" rx="80" fill="white" shape-rendering="crispEdges"/>
<mask id="mask0_31_646" style="mask-type:alpha" maskUnits="userSpaceOnUse" x="733" y="133" width="96" height="96">
<rect x="733" y="133" width="96" height="96" fill="#D9D9D9"/>
</mask>
<g mask="url(#mask0_31_646)">
<path d="M737.2 213V205.8C737.2 203.6 737.767 201.533 738.9 199.6C740.034 197.667 741.6 196.2 743.6 195.2C747 193.467 750.834 192 755.1 190.8C759.367 189.6 764.067 189 769.2 189C774.334 189 779.034 189.6 783.3 190.8C787.567 192 791.4 193.467 794.8 195.2C796.8 196.2 798.367 197.667 799.5 199.6C800.634 201.533 801.2 203.6 801.2 205.8V213C801.2 214.133 800.817 215.083 800.05 215.85C799.284 216.617 798.334 217 797.2 217H741.2C740.067 217 739.117 216.617 738.35 215.85C737.584 215.083 737.2 214.133 737.2 213ZM769.2 185C764.8 185 761.034 183.433 757.9 180.3C754.767 177.167 753.2 173.4 753.2 169H752.2C751.6 169 751.117 168.817 750.75 168.45C750.384 168.083 750.2 167.6 750.2 167C750.2 166.4 750.384 165.917 750.75 165.55C751.117 165.183 751.6 165 752.2 165H753.2C753.2 162 753.934 159.3 755.4 156.9C756.867 154.5 758.8 152.6 761.2 151.2V155C761.2 155.6 761.384 156.083 761.75 156.45C762.117 156.817 762.6 157 763.2 157C763.8 157 764.284 156.817 764.65 156.45C765.017 156.083 765.2 155.6 765.2 155V149.6C765.8 149.4 766.434 149.25 767.1 149.15C767.767 149.05 768.467 149 769.2 149C769.934 149 770.634 149.05 771.3 149.15C771.967 149.25 772.6 149.4 773.2 149.6V155C773.2 155.6 773.384 156.083 773.75 156.45C774.117 156.817 774.6 157 775.2 157C775.8 157 776.284 156.817 776.65 156.45C777.017 156.083 777.2 155.6 777.2 155V151.2C779.6 152.6 781.534 154.5 783 156.9C784.467 159.3 785.2 162 785.2 165H786.2C786.8 165 787.284 165.183 787.65 165.55C788.017 165.917 788.2 166.4 788.2 167C788.2 167.6 788.017 168.083 787.65 168.45C787.284 168.817 786.8 169 786.2 169H785.2C785.2 173.4 783.634 177.167 780.5 180.3C777.367 183.433 773.6 185 769.2 185ZM769.2 177C771.4 177 773.284 176.217 774.85 174.65C776.417 173.083 777.2 171.2 777.2 169H761.2C761.2 171.2 761.984 173.083 763.55 174.65C765.117 176.217 767 177 769.2 177ZM798.9 191.4L798.6 190C798.2 189.867 797.817 189.717 797.45 189.55C797.084 189.383 796.734 189.133 796.4 188.8L795.2 189.2C794.734 189.333 794.284 189.333 793.85 189.2C793.417 189.067 793.067 188.767 792.8 188.3L792.4 187.6C792.134 187.2 792.05 186.767 792.15 186.3C792.25 185.833 792.467 185.433 792.8 185.1L793.8 184.2V181.8L792.8 180.9C792.467 180.567 792.25 180.167 792.15 179.7C792.05 179.233 792.134 178.8 792.4 178.4L792.8 177.7C793.067 177.233 793.417 176.933 793.85 176.8C794.284 176.667 794.734 176.667 795.2 176.8L796.4 177.2C796.667 176.933 797 176.7 797.4 176.5C797.8 176.3 798.2 176.133 798.6 176L798.9 174.6C799.034 174.133 799.267 173.75 799.6 173.45C799.934 173.15 800.334 173 800.8 173H801.6C802.067 173 802.467 173.15 802.8 173.45C803.134 173.75 803.367 174.133 803.5 174.6L803.8 176C804.2 176.133 804.6 176.3 805 176.5C805.4 176.7 805.734 176.933 806 177.2L807.2 176.8C807.667 176.667 808.117 176.667 808.55 176.8C808.984 176.933 809.334 177.233 809.6 177.7L810 178.4C810.267 178.8 810.35 179.233 810.25 179.7C810.15 180.167 809.934 180.567 809.6 180.9L808.6 181.8V184.2L809.6 185.1C809.934 185.433 810.15 185.833 810.25 186.3C810.35 186.767 810.267 187.2 810 187.6L809.6 188.3C809.334 188.767 808.984 189.067 808.55 189.2C808.117 189.333 807.667 189.333 807.2 189.2L806 188.8C805.667 189.133 805.317 189.383 804.95 189.55C804.584 189.717 804.2 189.867 803.8 190L803.5 191.4C803.367 191.867 803.134 192.25 802.8 192.55C802.467 192.85 802.067 193 801.6 193H800.8C800.334 193 799.934 192.85 799.6 192.55C799.267 192.25 799.034 191.867 798.9 191.4ZM801.2 186C802 186 802.7 185.7 803.3 185.1C803.9 184.5 804.2 183.8 804.2 183C804.2 182.2 803.9 181.5 803.3 180.9C802.7 180.3 802 180 801.2 180C800.4 180 799.7 180.3 799.1 180.9C798.5 181.5 798.2 182.2 798.2 183C798.2 183.8 798.5 184.5 799.1 185.1C799.7 185.7 800.4 186 801.2 186ZM808 170.8L807.6 168.8C807 168.6 806.45 168.35 805.95 168.05C805.45 167.75 805 167.4 804.6 167L802.5 167.7C801.9 167.9 801.3 167.883 800.7 167.65C800.1 167.417 799.634 167.033 799.3 166.5L798.7 165.5C798.367 164.967 798.25 164.383 798.35 163.75C798.45 163.117 798.767 162.567 799.3 162.1L801 160.6C800.867 160.267 800.8 160 800.8 159.8V158.2C800.8 158 800.867 157.733 801 157.4L799.3 155.9C798.767 155.433 798.45 154.883 798.35 154.25C798.25 153.617 798.367 153.033 798.7 152.5L799.3 151.5C799.634 150.967 800.1 150.583 800.7 150.35C801.3 150.117 801.9 150.1 802.5 150.3L804.6 151C805 150.6 805.45 150.25 805.95 149.95C806.45 149.65 807 149.4 807.6 149.2L808 147.2C808.134 146.533 808.45 146 808.95 145.6C809.45 145.2 810.034 145 810.7 145H811.7C812.367 145 812.95 145.2 813.45 145.6C813.95 146 814.267 146.533 814.4 147.2L814.8 149.2C815.4 149.4 815.95 149.65 816.45 149.95C816.95 150.25 817.4 150.6 817.8 151L819.9 150.3C820.5 150.1 821.1 150.117 821.7 150.35C822.3 150.583 822.767 150.967 823.1 151.5L823.7 152.5C824.034 153.033 824.15 153.617 824.05 154.25C823.95 154.883 823.634 155.433 823.1 155.9L821.4 157.4C821.534 157.733 821.6 158 821.6 158.2V159.8C821.6 160 821.534 160.267 821.4 160.6L823.1 162.1C823.634 162.567 823.95 163.117 824.05 163.75C824.15 164.383 824.034 164.967 823.7 165.5L823.1 166.5C822.767 167.033 822.3 167.417 821.7 167.65C821.1 167.883 820.5 167.9 819.9 167.7L817.8 167C817.4 167.4 816.95 167.75 816.45 168.05C815.95 168.35 815.4 168.6 814.8 168.8L814.4 170.8C814.267 171.467 813.95 172 813.45 172.4C812.95 172.8 812.367 173 811.7 173H810.7C810.034 173 809.45 172.8 808.95 172.4C808.45 172 808.134 171.467 808 170.8ZM811.2 164C812.6 164 813.784 163.517 814.75 162.55C815.717 161.583 816.2 160.4 816.2 159C816.2 157.6 815.717 156.417 814.75 155.45C813.784 154.483 812.6 154 811.2 154C809.8 154 808.617 154.483 807.65 155.45C806.684 156.417 806.2 157.6 806.2 159C806.2 160.4 806.684 161.583 807.65 162.55C808.617 163.517 809.8 164 811.2 164Z" fill="#D2D4DA"/>
</g>
</g>
<g filter="url(#filter1_d_31_646)">
<rect x="893" y="481" width="110" height="110" rx="55" fill="white" shape-rendering="crispEdges"/>
<mask id="mask1_31_646" style="mask-type:alpha" maskUnits="userSpaceOnUse" x="920" y="508" width="56" height="56">
<rect x="920" y="508" width="56" height="56" fill="#D9D9D9"/>
</mask>
<g mask="url(#mask1_31_646)">
<path d="M936.333 528.999V514.999C936.333 514.338 936.557 513.784 937.004 513.337C937.451 512.89 938.005 512.666 938.666 512.666C939.327 512.666 939.882 512.89 940.329 513.337C940.776 513.784 941 514.338 941 514.999V528.999H943.333V514.999C943.333 514.338 943.557 513.784 944.004 513.337C944.451 512.89 945.005 512.666 945.666 512.666C946.327 512.666 946.882 512.89 947.329 513.337C947.776 513.784 948 514.338 948 514.999V528.999C948 531.177 947.329 533.083 945.987 534.716C944.646 536.349 942.983 537.438 941 537.983V556.999C941 557.66 940.776 558.215 940.329 558.662C939.882 559.109 939.327 559.333 938.666 559.333C938.005 559.333 937.451 559.109 937.004 558.662C936.557 558.215 936.333 557.66 936.333 556.999V537.983C934.35 537.438 932.687 536.349 931.346 534.716C930.004 533.083 929.333 531.177 929.333 528.999V514.999C929.333 514.338 929.557 513.784 930.004 513.337C930.451 512.89 931.005 512.666 931.666 512.666C932.327 512.666 932.882 512.89 933.329 513.337C933.776 513.784 934 514.338 934 514.999V528.999H936.333ZM959.666 540.666H955C954.339 540.666 953.784 540.442 953.337 539.995C952.89 539.548 952.666 538.994 952.666 538.333V524.333C952.666 521.61 953.668 518.985 955.671 516.458C957.673 513.93 959.744 512.666 961.883 512.666C962.583 512.666 963.166 512.938 963.633 513.483C964.1 514.027 964.333 514.669 964.333 515.408V556.999C964.333 557.66 964.109 558.215 963.662 558.662C963.215 559.109 962.661 559.333 962 559.333C961.339 559.333 960.784 559.109 960.337 558.662C959.89 558.215 959.666 557.66 959.666 556.999V540.666Z" fill="#D2D4DA"/>
</g>
</g>
<g filter="url(#filter2_d_31_646)">
<rect x="58" y="603" width="130" height="130" rx="65" fill="white" shape-rendering="crispEdges"/>
<mask id="mask2_31_646" style="mask-type:alpha" maskUnits="userSpaceOnUse" x="87" y="632" width="72" height="72">
<rect x="87" y="632" width="72" height="72" fill="#D9D9D9"/>
</mask>
<g mask="url(#mask2_31_646)">
<path d="M92.25 671.975C91.4 671.975 90.6875 671.687 90.1125 671.112C89.5375 670.537 89.25 669.825 89.25 668.975C89.25 668.125 89.5375 667.412 90.1125 666.837C90.6875 666.262 91.4 665.975 92.25 665.975H102.75C103.6 665.975 104.313 666.262 104.888 666.837C105.463 667.412 105.75 668.125 105.75 668.975C105.75 669.825 105.463 670.537 104.888 671.112C104.313 671.687 103.6 671.975 102.75 671.975H92.25ZM108 692C105.5 692 103.375 691.125 101.625 689.375C99.875 687.625 99 685.5 99 683H95.25C94.25 683 93.45 682.625 92.85 681.875C92.25 681.125 92.075 680.275 92.325 679.325L93 676.475H102.375C104.475 676.475 106.25 675.75 107.7 674.3C109.15 672.85 109.875 671.075 109.875 668.975C109.875 668.325 109.8 667.725 109.65 667.175C109.5 666.625 109.3 666.075 109.05 665.525H111.9C114 665.525 115.775 664.8 117.225 663.35C118.675 661.9 119.4 660.125 119.4 658.025C119.4 655.925 118.675 654.15 117.225 652.7C115.775 651.25 114 650.525 111.9 650.525H100.5L100.95 648.725C101.25 647.325 101.938 646.187 103.013 645.312C104.088 644.437 105.35 644 106.8 644H137.25C138.25 644 139.05 644.375 139.65 645.125C140.25 645.875 140.425 646.725 140.175 647.675L138.225 656H144C144.95 656 145.85 656.212 146.7 656.637C147.55 657.062 148.25 657.65 148.8 658.4L154.425 665.825C154.975 666.525 155.325 667.287 155.475 668.112C155.625 668.937 155.625 669.775 155.475 670.625L153.45 680.6C153.3 681.3 152.95 681.875 152.4 682.325C151.85 682.775 151.225 683 150.525 683H147C147 685.5 146.125 687.625 144.375 689.375C142.625 691.125 140.5 692 138 692C135.5 692 133.375 691.125 131.625 689.375C129.875 687.625 129 685.5 129 683H117C117 685.5 116.125 687.625 114.375 689.375C112.625 691.125 110.5 692 108 692ZM98.25 661.025C97.4 661.025 96.6875 660.737 96.1125 660.162C95.5375 659.587 95.25 658.875 95.25 658.025C95.25 657.175 95.5375 656.462 96.1125 655.887C96.6875 655.312 97.4 655.025 98.25 655.025H111.75C112.6 655.025 113.313 655.312 113.888 655.887C114.463 656.462 114.75 657.175 114.75 658.025C114.75 658.875 114.463 659.587 113.888 660.162C113.313 660.737 112.6 661.025 111.75 661.025H98.25ZM108 686C108.85 686 109.563 685.712 110.138 685.137C110.713 684.562 111 683.85 111 683C111 682.15 110.713 681.437 110.138 680.862C109.563 680.287 108.85 680 108 680C107.15 680 106.437 680.287 105.862 680.862C105.287 681.437 105 682.15 105 683C105 683.85 105.287 684.562 105.862 685.137C106.437 685.712 107.15 686 108 686ZM138 686C138.85 686 139.562 685.712 140.137 685.137C140.712 684.562 141 683.85 141 683C141 682.15 140.712 681.437 140.137 680.862C139.562 680.287 138.85 680 138 680C137.15 680 136.438 680.287 135.863 680.862C135.288 681.437 135 682.15 135 683C135 683.85 135.288 684.562 135.863 685.137C136.438 685.712 137.15 686 138 686ZM134.775 671H149.25L149.55 669.425L144 662H136.875L134.775 671Z" fill="#D2D4DA"/>
</g>
</g>
<g filter="url(#filter3_d_31_646)">
<rect x="561" y="859" width="80" height="80" rx="40" fill="white" shape-rendering="crispEdges"/>
<mask id="mask3_31_646" style="mask-type:alpha" maskUnits="userSpaceOnUse" x="581" y="879" width="40" height="40">
<rect x="581" y="879" width="40" height="40" fill="#D9D9D9"/>
</mask>
<g mask="url(#mask3_31_646)">
<path d="M586.917 914H591V910.667C591 910.195 591.16 909.799 591.479 909.479C591.799 909.16 592.195 909 592.667 909C593.139 909 593.535 909.16 593.854 909.479C594.174 909.799 594.333 910.195 594.333 910.667V914H599.333V910.667C599.333 910.195 599.493 909.799 599.813 909.479C600.132 909.16 600.528 909 601 909C601.472 909 601.868 909.16 602.188 909.479C602.507 909.799 602.667 910.195 602.667 910.667V914H607.667V910.667C607.667 910.195 607.827 909.799 608.146 909.479C608.465 909.16 608.861 909 609.333 909C609.806 909 610.202 909.16 610.521 909.479C610.84 909.799 611 910.195 611 910.667V914H615.083L613.417 907.334H588.583L586.917 914ZM615.083 917.334H586.917C585.833 917.334 584.958 916.903 584.292 916.042C583.625 915.181 583.431 914.223 583.708 913.167L586 904V900.667C586 899.75 586.327 898.966 586.979 898.313C587.632 897.66 588.417 897.334 589.333 897.334H596V885.667C596 884.278 596.486 883.098 597.458 882.125C598.431 881.153 599.611 880.667 601 880.667C602.389 880.667 603.57 881.153 604.542 882.125C605.514 883.098 606 884.278 606 885.667V897.334H612.667C613.583 897.334 614.368 897.66 615.021 898.313C615.674 898.966 616 899.75 616 900.667V904L618.292 913.167C618.653 914.223 618.493 915.181 617.813 916.042C617.132 916.903 616.222 917.334 615.083 917.334Z" fill="#D2D4DA"/>
</g>
</g>
<g filter="url(#filter4_d_31_646)">
<rect x="261" y="181" width="64" height="64" rx="32" fill="white" shape-rendering="crispEdges"/>
<mask id="mask4_31_646" style="mask-type:alpha" maskUnits="userSpaceOnUse" x="277" y="197" width="32" height="32">
<rect x="277" y="197" width="32" height="32" fill="#D9D9D9"/>
</mask>
<g mask="url(#mask4_31_646)">
<path d="M291.467 215.334L291.6 216.4C291.622 216.578 291.694 216.723 291.817 216.834C291.939 216.945 292.089 217 292.267 217H293.733C293.911 217 294.061 216.945 294.183 216.834C294.306 216.723 294.378 216.578 294.4 216.4L294.533 215.334C294.711 215.267 294.872 215.189 295.017 215.1C295.161 215.011 295.289 214.911 295.4 214.8L296.4 215.234C296.556 215.3 296.711 215.311 296.867 215.267C297.022 215.223 297.144 215.123 297.233 214.967L297.967 213.7C298.056 213.545 298.083 213.389 298.05 213.234C298.017 213.078 297.933 212.945 297.8 212.834L296.933 212.2C296.978 212.023 297 211.845 297 211.667C297 211.489 296.978 211.311 296.933 211.134L297.8 210.5C297.933 210.389 298.017 210.256 298.05 210.1C298.083 209.945 298.056 209.789 297.967 209.634L297.233 208.367C297.144 208.211 297.022 208.111 296.867 208.067C296.711 208.023 296.556 208.034 296.4 208.1L295.4 208.534C295.289 208.423 295.161 208.323 295.017 208.234C294.872 208.145 294.711 208.067 294.533 208L294.4 206.934C294.378 206.756 294.306 206.611 294.183 206.5C294.061 206.389 293.911 206.334 293.733 206.334H292.267C292.089 206.334 291.939 206.389 291.817 206.5C291.694 206.611 291.622 206.756 291.6 206.934L291.467 208C291.289 208.067 291.128 208.145 290.983 208.234C290.839 208.323 290.711 208.423 290.6 208.534L289.6 208.1C289.444 208.034 289.289 208.023 289.133 208.067C288.978 208.111 288.856 208.211 288.767 208.367L288.033 209.634C287.944 209.789 287.917 209.945 287.95 210.1C287.983 210.256 288.067 210.389 288.2 210.5L289.067 211.134C289.022 211.311 289 211.489 289 211.667C289 211.845 289.022 212.023 289.067 212.2L288.2 212.834C288.067 212.945 287.983 213.078 287.95 213.234C287.917 213.389 287.944 213.545 288.033 213.7L288.767 214.967C288.856 215.123 288.978 215.223 289.133 215.267C289.289 215.311 289.444 215.3 289.6 215.234L290.6 214.8C290.711 214.911 290.839 215.011 290.983 215.1C291.128 215.189 291.289 215.267 291.467 215.334ZM293 213.667C292.444 213.667 291.972 213.473 291.583 213.084C291.194 212.695 291 212.223 291 211.667C291 211.111 291.194 210.639 291.583 210.25C291.972 209.861 292.444 209.667 293 209.667C293.556 209.667 294.028 209.861 294.417 210.25C294.806 210.639 295 211.111 295 211.667C295 212.223 294.806 212.695 294.417 213.084C294.028 213.473 293.556 213.667 293 213.667ZM285 220.6C283.733 219.445 282.75 218.095 282.05 216.55C281.35 215.006 281 213.378 281 211.667C281 208.334 282.167 205.5 284.5 203.167C286.833 200.834 289.667 199.667 293 199.667C295.778 199.667 298.239 200.484 300.383 202.117C302.528 203.75 303.922 205.878 304.567 208.5L306.3 215.334C306.411 215.756 306.333 216.139 306.067 216.484C305.8 216.828 305.444 217 305 217H302.333V221C302.333 221.734 302.072 222.361 301.55 222.884C301.028 223.406 300.4 223.667 299.667 223.667H297V225C297 225.378 296.872 225.695 296.617 225.95C296.361 226.206 296.044 226.334 295.667 226.334C295.289 226.334 294.972 226.206 294.717 225.95C294.461 225.695 294.333 225.378 294.333 225V222.334C294.333 221.956 294.461 221.639 294.717 221.384C294.972 221.128 295.289 221 295.667 221H299.667V215.667C299.667 215.289 299.794 214.973 300.05 214.717C300.306 214.461 300.622 214.334 301 214.334H303.267L302 209.167C301.489 207.145 300.4 205.5 298.733 204.234C297.067 202.967 295.156 202.334 293 202.334C290.422 202.334 288.222 203.234 286.4 205.034C284.578 206.834 283.667 209.023 283.667 211.6C283.667 212.934 283.939 214.2 284.483 215.4C285.028 216.6 285.8 217.667 286.8 218.6L287.667 219.4V225C287.667 225.378 287.539 225.695 287.283 225.95C287.028 226.206 286.711 226.334 286.333 226.334C285.956 226.334 285.639 226.206 285.383 225.95C285.128 225.695 285 225.378 285 225V220.6Z" fill="#D2D4DA"/>
</g>
</g>
<defs>
<filter id="filter0_d_31_646" x="625" y="61" width="320" height="320" filterUnits="userSpaceOnUse" color-interpolation-filters="sRGB">
<feFlood flood-opacity="0" result="BackgroundImageFix"/>
<feColorMatrix in="SourceAlpha" type="matrix" values="0 0 0 0 0 0 0 0 0 0 0 0 0 0 0 0 0 0 127 0" result="hardAlpha"/>
<feOffset dx="4" dy="40"/>
<feGaussianBlur stdDeviation="40"/>
<feComposite in2="hardAlpha" operator="out"/>
<feColorMatrix type="matrix" values="0 0 0 0 0 0 0 0 0 0.0705882 0 0 0 0 0.588235 0 0 0 0.2 0"/>
<feBlend mode="normal" in2="BackgroundImageFix" result="effect1_dropShadow_31_646"/>
<feBlend mode="normal" in="SourceGraphic" in2="effect1_dropShadow_31_646" result="shape"/>
</filter>
<filter id="filter1_d_31_646" x="863" y="461" width="174" height="174" filterUnits="userSpaceOnUse" color-interpolation-filters="sRGB">
<feFlood flood-opacity="0" result="BackgroundImageFix"/>
<feColorMatrix in="SourceAlpha" type="matrix" values="0 0 0 0 0 0 0 0 0 0 0 0 0 0 0 0 0 0 127 0" result="hardAlpha"/>
<feOffset dx="2" dy="12"/>
<feGaussianBlur stdDeviation="16"/>
<feComposite in2="hardAlpha" operator="out"/>
<feColorMatrix type="matrix" values="0 0 0 0 0 0 0 0 0 0.0705882 0 0 0 0 0.588235 0 0 0 0.2 0"/>
<feBlend mode="normal" in2="BackgroundImageFix" result="effect1_dropShadow_31_646"/>
<feBlend mode="normal" in="SourceGraphic" in2="effect1_dropShadow_31_646" result="shape"/>
</filter>
<filter id="filter2_d_31_646" x="48" y="593" width="154" height="154" filterUnits="userSpaceOnUse" color-interpolation-filters="sRGB">
<feFlood flood-opacity="0" result="BackgroundImageFix"/>
<feColorMatrix in="SourceAlpha" type="matrix" values="0 0 0 0 0 0 0 0 0 0 0 0 0 0 0 0 0 0 127 0" result="hardAlpha"/>
<feOffset dx="2" dy="2"/>
<feGaussianBlur stdDeviation="6"/>
<feComposite in2="hardAlpha" operator="out"/>
<feColorMatrix type="matrix" values="0 0 0 0 0 0 0 0 0 0.0705882 0 0 0 0 0.588235 0 0 0 0.08 0"/>
<feBlend mode="normal" in2="BackgroundImageFix" result="effect1_dropShadow_31_646"/>
<feBlend mode="normal" in="SourceGraphic" in2="effect1_dropShadow_31_646" result="shape"/>
</filter>
<filter id="filter3_d_31_646" x="543" y="847" width="120" height="120" filterUnits="userSpaceOnUse" color-interpolation-filters="sRGB">
<feFlood flood-opacity="0" result="BackgroundImageFix"/>
<feColorMatrix in="SourceAlpha" type="matrix" values="0 0 0 0 0 0 0 0 0 0 0 0 0 0 0 0 0 0 127 0" result="hardAlpha"/>
<feOffset dx="2" dy="8"/>
<feGaussianBlur stdDeviation="10"/>
<feComposite in2="hardAlpha" operator="out"/>
<feColorMatrix type="matrix" values="0 0 0 0 0 0 0 0 0 0.0705882 0 0 0 0 0.588235 0 0 0 0.2 0"/>
<feBlend mode="normal" in2="BackgroundImageFix" result="effect1_dropShadow_31_646"/>
<feBlend mode="normal" in="SourceGraphic" in2="effect1_dropShadow_31_646" result="shape"/>
</filter>
<filter id="filter4_d_31_646" x="251" y="171" width="88" height="88" filterUnits="userSpaceOnUse" color-interpolation-filters="sRGB">
<feFlood flood-opacity="0" result="BackgroundImageFix"/>
<feColorMatrix in="SourceAlpha" type="matrix" values="0 0 0 0 0 0 0 0 0 0 0 0 0 0 0 0 0 0 127 0" result="hardAlpha"/>
<feOffset dx="2" dy="2"/>
<feGaussianBlur stdDeviation="6"/>
<feComposite in2="hardAlpha" operator="out"/>
<feColorMatrix type="matrix" values="0 0 0 0 0 0 0 0 0 0.0705882 0 0 0 0 0.588235 0 0 0 0.08 0"/>
<feBlend mode="normal" in2="BackgroundImageFix" result="effect1_dropShadow_31_646"/>
<feBlend mode="normal" in="SourceGraphic" in2="effect1_dropShadow_31_646" result="shape"/>
</filter>
</defs>
</svg>
