<svg width="20" height="20" viewBox="0 0 20 20" fill="none" xmlns="http://www.w3.org/2000/svg">
<path d="M18.0909 16.9075L14.9992 13.8409C16.1993 12.3445 16.7804 10.4453 16.6232 8.5336C16.466 6.62194 15.5822 4.84317 14.1538 3.56306C12.7253 2.28294 10.8607 1.59878 8.94329 1.65125C7.02589 1.70371 5.20146 2.48882 3.84514 3.84514C2.48882 5.20146 1.70371 7.02589 1.65125 8.94329C1.59878 10.8607 2.28294 12.7253 3.56306 14.1538C4.84317 15.5822 6.62194 16.466 8.5336 16.6232C10.4453 16.7804 12.3445 16.1993 13.8409 14.9992L16.9075 18.0659C16.985 18.144 17.0772 18.206 17.1787 18.2483C17.2803 18.2906 17.3892 18.3124 17.4992 18.3124C17.6092 18.3124 17.7181 18.2906 17.8197 18.2483C17.9212 18.206 18.0134 18.144 18.0909 18.0659C18.2411 17.9105 18.325 17.7028 18.325 17.4867C18.325 17.2706 18.2411 17.0629 18.0909 16.9075ZM9.16585 14.9992C8.01213 14.9992 6.88432 14.6571 5.92503 14.0161C4.96574 13.3751 4.21807 12.4641 3.77656 11.3982C3.33505 10.3323 3.21953 9.15938 3.44461 8.02783C3.66969 6.89627 4.22526 5.85687 5.04106 5.04107C5.85687 4.22526 6.89627 3.66969 8.02783 3.44461C9.15938 3.21953 10.3323 3.33505 11.3982 3.77656C12.4641 4.21807 13.3751 4.96574 14.0161 5.92503C14.6571 6.88432 14.9992 8.01213 14.9992 9.16585C14.9992 10.713 14.3846 12.1967 13.2906 13.2906C12.1967 14.3846 10.713 14.9992 9.16585 14.9992Z" fill="#9496A1"/>
</svg>
