<svg width="20" height="20" viewBox="0 0 20 20" fill="none" xmlns="http://www.w3.org/2000/svg">
<mask id="mask0_1_6988" style="mask-type:alpha" maskUnits="userSpaceOnUse" x="0" y="0" width="21" height="20">
<rect x="0.5" width="20" height="20" fill="#D9D9D9"/>
</mask>
<g mask="url(#mask0_1_6988)">
<path d="M14.6667 18.3332C13.9723 18.3332 13.382 18.0901 12.8959 17.604C12.4098 17.1179 12.1667 16.5276 12.1667 15.8332C12.1667 15.7498 12.1876 15.5554 12.2292 15.2498L6.37508 11.8332C6.15286 12.0415 5.89591 12.2047 5.60425 12.3228C5.31258 12.4408 5.00008 12.4998 4.66675 12.4998C3.9723 12.4998 3.38203 12.2568 2.89591 11.7707C2.4098 11.2846 2.16675 10.6943 2.16675 9.99984C2.16675 9.30539 2.4098 8.71512 2.89591 8.229C3.38203 7.74289 3.9723 7.49984 4.66675 7.49984C5.00008 7.49984 5.31258 7.55887 5.60425 7.67692C5.89591 7.79498 6.15286 7.95817 6.37508 8.1665L12.2292 4.74984C12.2015 4.65262 12.1841 4.55887 12.1772 4.46859C12.1702 4.37831 12.1667 4.27762 12.1667 4.1665C12.1667 3.47206 12.4098 2.88178 12.8959 2.39567C13.382 1.90956 13.9723 1.6665 14.6667 1.6665C15.3612 1.6665 15.9515 1.90956 16.4376 2.39567C16.9237 2.88178 17.1667 3.47206 17.1667 4.1665C17.1667 4.86095 16.9237 5.45123 16.4376 5.93734C15.9515 6.42345 15.3612 6.6665 14.6667 6.6665C14.3334 6.6665 14.0209 6.60748 13.7292 6.48942C13.4376 6.37137 13.1806 6.20817 12.9584 5.99984L7.10425 9.4165C7.13203 9.51373 7.14939 9.60748 7.15633 9.69775C7.16328 9.78803 7.16675 9.88873 7.16675 9.99984C7.16675 10.1109 7.16328 10.2116 7.15633 10.3019C7.14939 10.3922 7.13203 10.4859 7.10425 10.5832L12.9584 13.9998C13.1806 13.7915 13.4376 13.6283 13.7292 13.5103C14.0209 13.3922 14.3334 13.3332 14.6667 13.3332C15.3612 13.3332 15.9515 13.5762 16.4376 14.0623C16.9237 14.5484 17.1667 15.1387 17.1667 15.8332C17.1667 16.5276 16.9237 17.1179 16.4376 17.604C15.9515 18.0901 15.3612 18.3332 14.6667 18.3332ZM14.6667 16.6665C14.9029 16.6665 15.1008 16.5866 15.2605 16.4269C15.4202 16.2672 15.5001 16.0693 15.5001 15.8332C15.5001 15.5971 15.4202 15.3991 15.2605 15.2394C15.1008 15.0797 14.9029 14.9998 14.6667 14.9998C14.4306 14.9998 14.2327 15.0797 14.073 15.2394C13.9133 15.3991 13.8334 15.5971 13.8334 15.8332C13.8334 16.0693 13.9133 16.2672 14.073 16.4269C14.2327 16.5866 14.4306 16.6665 14.6667 16.6665ZM4.66675 10.8332C4.90286 10.8332 5.10078 10.7533 5.2605 10.5936C5.42022 10.4339 5.50008 10.2359 5.50008 9.99984C5.50008 9.76373 5.42022 9.56581 5.2605 9.40609C5.10078 9.24637 4.90286 9.1665 4.66675 9.1665C4.43064 9.1665 4.23272 9.24637 4.073 9.40609C3.91328 9.56581 3.83341 9.76373 3.83341 9.99984C3.83341 10.2359 3.91328 10.4339 4.073 10.5936C4.23272 10.7533 4.43064 10.8332 4.66675 10.8332ZM14.6667 4.99984C14.9029 4.99984 15.1008 4.91998 15.2605 4.76025C15.4202 4.60053 15.5001 4.40262 15.5001 4.1665C15.5001 3.93039 15.4202 3.73248 15.2605 3.57275C15.1008 3.41303 14.9029 3.33317 14.6667 3.33317C14.4306 3.33317 14.2327 3.41303 14.073 3.57275C13.9133 3.73248 13.8334 3.93039 13.8334 4.1665C13.8334 4.40262 13.9133 4.60053 14.073 4.76025C14.2327 4.91998 14.4306 4.99984 14.6667 4.99984Z" fill="#404252"/>
</g>
</svg>
