<svg width="24" height="24" viewBox="0 0 24 24" fill="none" xmlns="http://www.w3.org/2000/svg">
<g clip-path="url(#clip0_201_22574)">
<path d="M12 24C18.6274 24 24 18.6274 24 12C24 5.37258 18.6274 0 12 0C5.37258 0 0 5.37258 0 12C0 18.6274 5.37258 24 12 24Z" fill="#E3E6FF"/>
<path d="M16.765 10.3405C17.4636 10.3405 18.03 9.77419 18.03 9.07555C18.03 8.37691 17.4636 7.81055 16.765 7.81055C16.0664 7.81055 15.5 8.37691 15.5 9.07555C15.5 9.77419 16.0664 10.3405 16.765 10.3405Z" fill="#1C35EA"/>
<path d="M7.23438 10.3408C7.93337 10.3408 8.50001 9.77419 8.50001 9.0752C8.50001 8.37621 7.93337 7.80957 7.23438 7.80957C6.53539 7.80957 5.96875 8.37621 5.96875 9.0752C5.96875 9.77419 6.53539 10.3408 7.23438 10.3408Z" fill="#1C35EA"/>
<path d="M18.3697 13.8037C17.5845 16.5817 15.0306 18.6174 12.0012 18.6174C8.97189 18.6174 6.41798 16.5817 5.63281 13.8037" stroke="#1C35EA" stroke-linecap="round"/>
</g>
<defs>
<clipPath id="clip0_201_22574">
<rect width="24" height="24" fill="white"/>
</clipPath>
</defs>
</svg>
 