<svg width="56" height="56" viewBox="0 0 56 56" fill="none" xmlns="http://www.w3.org/2000/svg">
<mask id="mask0_169_2575" style="mask-type:alpha" maskUnits="userSpaceOnUse" x="0" y="0" width="56" height="56">
<rect width="56" height="56" fill="#D9D9D9"/>
</mask>
<g mask="url(#mask0_169_2575)">
<path d="M16.3334 20.9998V6.99984C16.3334 6.33873 16.557 5.78456 17.0042 5.33734C17.4514 4.89012 18.0056 4.6665 18.6667 4.6665C19.3278 4.6665 19.882 4.89012 20.3292 5.33734C20.7764 5.78456 21 6.33873 21 6.99984V20.9998H23.3334V6.99984C23.3334 6.33873 23.557 5.78456 24.0042 5.33734C24.4514 4.89012 25.0056 4.6665 25.6667 4.6665C26.3278 4.6665 26.882 4.89012 27.3292 5.33734C27.7764 5.78456 28 6.33873 28 6.99984V20.9998C28 23.1776 27.3292 25.0832 25.9875 26.7165C24.6459 28.3498 22.9834 29.4387 21 29.9832V48.9998C21 49.6609 20.7764 50.2151 20.3292 50.6623C19.882 51.1096 19.3278 51.3332 18.6667 51.3332C18.0056 51.3332 17.4514 51.1096 17.0042 50.6623C16.557 50.2151 16.3334 49.6609 16.3334 48.9998V29.9832C14.35 29.4387 12.6875 28.3498 11.3459 26.7165C10.0042 25.0832 9.33337 23.1776 9.33337 20.9998V6.99984C9.33337 6.33873 9.55699 5.78456 10.0042 5.33734C10.4514 4.89012 11.0056 4.6665 11.6667 4.6665C12.3278 4.6665 12.882 4.89012 13.3292 5.33734C13.7764 5.78456 14 6.33873 14 6.99984V20.9998H16.3334ZM39.6667 32.6665H35C34.3389 32.6665 33.7848 32.4429 33.3375 31.9957C32.8903 31.5484 32.6667 30.9943 32.6667 30.3332V16.3332C32.6667 13.6109 33.6681 10.9859 35.6709 8.45817C37.6737 5.93039 39.7445 4.6665 41.8834 4.6665C42.5834 4.6665 43.1667 4.93873 43.6334 5.48317C44.1 6.02761 44.3334 6.66928 44.3334 7.40817V48.9998C44.3334 49.6609 44.1098 50.2151 43.6625 50.6623C43.2153 51.1096 42.6612 51.3332 42 51.3332C41.3389 51.3332 40.7848 51.1096 40.3375 50.6623C39.8903 50.2151 39.6667 49.6609 39.6667 48.9998V32.6665Z" fill="#D2D4DA"/>
</g>
</svg>
